<?xml version="1.0" encoding="utf-8"?>
<!-- Generator: Adobe Illustrator 21.1.0, SVG Export Plug-In . SVG Version: 6.00 Build 0)  -->
<svg version="1.1" id="Layer_1" xmlns="http://www.w3.org/2000/svg" xmlns:xlink="http://www.w3.org/1999/xlink" x="0px" y="0px"
	 viewBox="0 0 960 540" style="enable-background:new 0 0 960 540;" xml:space="preserve">
<style type="text/css">
	.st0{fill:#ECF0F1;}
	.st1{fill:none;stroke:#9B59B6;stroke-width:2.28;stroke-miterlimit:8;}
	.st2{fill:#9B59B6;}
	.st3{fill:url(#SVGID_1_);}
	.st4{fill:none;stroke:#3498DB;stroke-width:0.48;stroke-miterlimit:8;}
	.st5{enable-background:new    ;}
	.st6{fill:#FFFFFF;}
	.st7{fill:url(#SVGID_2_);}
	.st8{fill:url(#SVGID_3_);}
	.st9{fill:none;stroke:#2ECC71;stroke-width:1.56;stroke-miterlimit:8;}
	.st10{fill:#2ECC71;}
	.st11{fill:none;stroke:#E74C32;stroke-width:1.56;stroke-miterlimit:8;}
	.st12{fill:#E74C32;}
	.st13{fill:none;stroke:#713F85;stroke-width:1.56;stroke-miterlimit:8;}
	.st14{fill:#F1C40F;}
	.st15{fill:none;stroke:#B18F08;stroke-width:1.56;stroke-miterlimit:8;}
	.st16{fill:#E67E22;}
	.st17{fill:none;stroke:#A95B16;stroke-width:1.56;stroke-miterlimit:8;}
	.st18{fill:#3498DB;}
	.st19{fill:none;stroke:#236EA1;stroke-width:1.56;stroke-miterlimit:8;}
	.st20{fill:#EBDEF0;}
	.st21{fill:none;stroke:#D7BDE2;stroke-width:1.56;stroke-miterlimit:8;}
	.st22{fill:#F9E79F;}
	.st23{fill:none;stroke:#F7DC6F;stroke-width:1.56;stroke-miterlimit:8;}
	.st24{fill:#111111;}
	.st25{fill:#FAE5D3;}
	.st26{fill:none;stroke:#F5CBA7;stroke-width:1.56;stroke-miterlimit:8;}
	.st27{fill:none;stroke:#763E8D;stroke-width:1.56;stroke-miterlimit:8;}
	.st28{fill:#D6EAF8;}
	.st29{fill:none;stroke:#AED6F1;stroke-width:1.56;stroke-miterlimit:8;}
	.st30{fill:#F5CBA7;}
	.st31{fill:none;stroke:#F0B27A;stroke-width:1.56;stroke-miterlimit:8;}
	.st32{fill:none;stroke:#B25E14;stroke-width:1.56;stroke-miterlimit:8;}
	.st33{fill:#763E8D;}
	.st34{fill:none;stroke:#4F295E;stroke-width:1.56;stroke-miterlimit:8;}
	.st35{fill:#AED6F1;}
	.st36{fill:none;stroke:#85C1E9;stroke-width:1.56;stroke-miterlimit:8;}
	.st37{fill:#F7DC6F;}
	.st38{fill:none;stroke:#F1C40F;stroke-width:1.56;stroke-miterlimit:8;}
	.st39{fill:#1F74AD;}
	.st40{fill:none;stroke:#144D73;stroke-width:1.56;stroke-miterlimit:8;}
	.st41{fill:none;stroke:#3498DB;stroke-width:2.28;stroke-miterlimit:8;}
</style>
<rect x="24.4" y="221.3" class="st0" width="912" height="63.6"/>
<polyline class="st1" points="196.6,470.4 216.4,470.4 216.4,103.6 230.6,103.6 "/>
<polygon class="st2" points="229.4,107 236.3,103.6 229.4,100.2 "/>
<polygon class="st2" points="548.8,107 555.6,103.6 548.8,100.2 "/>
<linearGradient id="SVGID_1_" gradientUnits="userSpaceOnUse" x1="42.69" y1="-428.47" x2="42.69" y2="-385.37" gradientTransform="matrix(1 0 0 1 74.16 660.47)">
	<stop  offset="0" style="stop-color:#57A3E0"/>
	<stop  offset="0.5" style="stop-color:#2C9AE3"/>
	<stop  offset="1" style="stop-color:#1C8AD3"/>
</linearGradient>
<rect x="37.1" y="232" class="st3" width="159.5" height="43.1"/>
<rect x="37.1" y="232" class="st4" width="159.5" height="43.1"/>
<g class="st5">
	<path class="st6" d="M80.6,251.1c0-4.2,1.9-6.6,5.1-6.6c2.1,0,3.5,1,4.3,2.8l-1.2,0.7c-0.5-1.3-1.5-2.1-3.1-2.1
		c-2.2,0-3.4,1.7-3.4,4.3v1.9c0,2.6,1.3,4.1,3.4,4.1c1.6,0,2.7-0.9,3.2-2.3l1.2,0.8c-0.8,1.8-2.3,2.9-4.4,2.9
		C82.5,257.5,80.6,255.3,80.6,251.1z"/>
	<path class="st6" d="M93.8,257.3c-1,0-1.5-0.6-1.5-1.5V244h1.4V256h1.4v1.3H93.8z"/>
	<path class="st6" d="M103.9,257.3c-1.1,0-1.5-0.6-1.6-1.5h-0.1c-0.4,1.1-1.4,1.7-2.7,1.7c-2,0-3.1-1.1-3.1-2.8c0-1.7,1.3-2.7,4-2.7
		h1.8v-0.9c0-1.3-0.7-2-2.2-2c-1.1,0-1.9,0.5-2.4,1.4l-0.9-0.8c0.5-1,1.6-1.8,3.3-1.8c2.2,0,3.6,1.2,3.6,3.1v5.1h1.1v1.3H103.9z
		 M102.3,254.6v-1.5h-1.9c-1.6,0-2.4,0.5-2.4,1.4v0.4c0,0.9,0.7,1.4,1.8,1.4C101.2,256.3,102.3,255.6,102.3,254.6z"/>
	<path class="st6" d="M105.9,255.7l1-0.8c0.7,0.9,1.6,1.4,2.8,1.4c1.2,0,1.9-0.6,1.9-1.5c0-0.7-0.4-1.3-1.6-1.5l-0.7-0.1
		c-1.7-0.3-3-1-3-2.7c0-1.8,1.4-2.7,3.3-2.7c1.5,0,2.5,0.6,3.2,1.5l-1,0.9c-0.4-0.6-1.2-1.1-2.4-1.1c-1.2,0-1.8,0.6-1.8,1.4
		c0,0.9,0.6,1.3,1.8,1.4l0.7,0.1c2.1,0.3,2.8,1.2,2.8,2.6c0,1.8-1.3,2.9-3.4,2.9C107.9,257.5,106.8,256.8,105.9,255.7z"/>
	<path class="st6" d="M114.6,255.7l1-0.8c0.7,0.9,1.6,1.4,2.8,1.4c1.2,0,1.9-0.6,1.9-1.5c0-0.7-0.4-1.3-1.6-1.5l-0.7-0.1
		c-1.7-0.3-3-1-3-2.7c0-1.8,1.4-2.7,3.3-2.7c1.5,0,2.5,0.6,3.2,1.5l-1,0.9c-0.4-0.6-1.2-1.1-2.4-1.1c-1.2,0-1.8,0.6-1.8,1.4
		c0,0.9,0.6,1.3,1.8,1.4l0.7,0.1c2.1,0.3,2.8,1.2,2.8,2.6c0,1.8-1.3,2.9-3.4,2.9C116.5,257.5,115.4,256.8,114.6,255.7z"/>
	<path class="st6" d="M124.1,245v-0.2c0-0.5,0.3-0.8,0.9-0.8c0.6,0,0.9,0.3,0.9,0.8v0.2c0,0.5-0.3,0.8-0.9,0.8
		C124.3,245.8,124.1,245.5,124.1,245z M124.2,248h1.4v9.3h-1.4V248z"/>
	<path class="st6" d="M129.2,249.3h-1.5V248h1.5v-1.9c0-1.3,0.7-2.2,2-2.2h1.4v1.3h-2v2.8h2v1.3h-2v8h-1.4V249.3z"/>
	<path class="st6" d="M133.8,252.7c0-3,1.7-4.9,4.2-4.9c2.5,0,4,1.9,4,4.5v0.7h-6.7v0.4c0,1.6,1,2.8,2.8,2.8c1.2,0,2.1-0.6,2.6-1.6
		l1,0.7c-0.6,1.3-1.9,2.1-3.7,2.1C135.5,257.5,133.8,255.6,133.8,252.7z M135.3,251.8v0.1h5.1v-0.2c0-1.6-1-2.7-2.5-2.7
		C136.4,249,135.3,250.2,135.3,251.8z"/>
	<path class="st6" d="M144.4,257.3V248h1.4v1.7h0.1c0.3-0.9,1.2-1.7,2.7-1.7h0.6v1.4h-0.8c-1.5,0-2.5,0.7-2.5,1.5v6.3H144.4z"/>
</g>
<linearGradient id="SVGID_2_" gradientUnits="userSpaceOnUse" x1="-170.04" y1="-428.47" x2="-170.04" y2="-385.37" gradientTransform="matrix(1 0 0 1 499.44 660.47)">
	<stop  offset="0" style="stop-color:#57A3E0"/>
	<stop  offset="0.5" style="stop-color:#2C9AE3"/>
	<stop  offset="1" style="stop-color:#1C8AD3"/>
</linearGradient>
<rect x="249.7" y="232" class="st7" width="159.4" height="43.1"/>
<rect x="249.7" y="232" class="st4" width="159.4" height="43.1"/>
<g class="st5">
	<path class="st6" d="M293.2,251.1c0-4.2,1.9-6.6,5.1-6.6c2.1,0,3.5,1,4.3,2.8l-1.2,0.7c-0.5-1.3-1.5-2.1-3.1-2.1
		c-2.2,0-3.4,1.7-3.4,4.3v1.9c0,2.6,1.3,4.1,3.4,4.1c1.6,0,2.7-0.9,3.2-2.3l1.2,0.8c-0.8,1.8-2.3,2.9-4.4,2.9
		C295.1,257.5,293.2,255.3,293.2,251.1z"/>
	<path class="st6" d="M306.4,257.3c-1,0-1.5-0.6-1.5-1.5V244h1.4V256h1.4v1.3H306.4z"/>
	<path class="st6" d="M316.5,257.3c-1.1,0-1.5-0.6-1.6-1.5h-0.1c-0.4,1.1-1.4,1.7-2.7,1.7c-2,0-3.1-1.1-3.1-2.8c0-1.7,1.3-2.7,4-2.7
		h1.8v-0.9c0-1.3-0.7-2-2.2-2c-1.1,0-1.9,0.5-2.4,1.4l-0.9-0.8c0.5-1,1.6-1.8,3.3-1.8c2.2,0,3.6,1.2,3.6,3.1v5.1h1.1v1.3H316.5z
		 M314.8,254.6v-1.5h-1.9c-1.6,0-2.4,0.5-2.4,1.4v0.4c0,0.9,0.7,1.4,1.8,1.4C313.8,256.3,314.8,255.6,314.8,254.6z"/>
	<path class="st6" d="M318.5,255.7l1-0.8c0.7,0.9,1.6,1.4,2.8,1.4c1.2,0,1.9-0.6,1.9-1.5c0-0.7-0.4-1.3-1.6-1.5l-0.7-0.1
		c-1.7-0.3-3-1-3-2.7c0-1.8,1.4-2.7,3.3-2.7c1.5,0,2.5,0.6,3.2,1.5l-1,0.9c-0.4-0.6-1.2-1.1-2.4-1.1c-1.2,0-1.8,0.6-1.8,1.4
		c0,0.9,0.6,1.3,1.8,1.4l0.7,0.1c2.1,0.3,2.8,1.2,2.8,2.6c0,1.8-1.3,2.9-3.4,2.9C320.5,257.5,319.3,256.8,318.5,255.7z"/>
	<path class="st6" d="M327.2,255.7l1-0.8c0.7,0.9,1.6,1.4,2.8,1.4c1.2,0,1.9-0.6,1.9-1.5c0-0.7-0.4-1.3-1.6-1.5l-0.7-0.1
		c-1.7-0.3-3-1-3-2.7c0-1.8,1.4-2.7,3.3-2.7c1.5,0,2.5,0.6,3.2,1.5l-1,0.9c-0.4-0.6-1.2-1.1-2.4-1.1c-1.2,0-1.8,0.6-1.8,1.4
		c0,0.9,0.6,1.3,1.8,1.4l0.7,0.1c2.1,0.3,2.8,1.2,2.8,2.6c0,1.8-1.3,2.9-3.4,2.9C329.1,257.5,328,256.8,327.2,255.7z"/>
	<path class="st6" d="M336.7,245v-0.2c0-0.5,0.3-0.8,0.9-0.8c0.6,0,0.9,0.3,0.9,0.8v0.2c0,0.5-0.3,0.8-0.9,0.8
		C336.9,245.8,336.7,245.5,336.7,245z M336.8,248h1.4v9.3h-1.4V248z"/>
	<path class="st6" d="M341.8,249.3h-1.5V248h1.5v-1.9c0-1.3,0.7-2.2,2-2.2h1.4v1.3h-2v2.8h2v1.3h-2v8h-1.4V249.3z"/>
	<path class="st6" d="M346.4,252.7c0-3,1.7-4.9,4.2-4.9c2.5,0,4,1.9,4,4.5v0.7h-6.7v0.4c0,1.6,1,2.8,2.8,2.8c1.2,0,2.1-0.6,2.6-1.6
		l1,0.7c-0.6,1.3-1.9,2.1-3.7,2.1C348,257.5,346.4,255.6,346.4,252.7z M347.9,251.8v0.1h5.1v-0.2c0-1.6-1-2.7-2.5-2.7
		C349,249,347.9,250.2,347.9,251.8z"/>
	<path class="st6" d="M357,257.3V248h1.4v1.7h0.1c0.3-0.9,1.2-1.7,2.7-1.7h0.6v1.4h-0.8c-1.5,0-2.5,0.7-2.5,1.5v6.3H357z"/>
</g>
<linearGradient id="SVGID_3_" gradientUnits="userSpaceOnUse" x1="-489.33" y1="-428.47" x2="-489.33" y2="-385.37" gradientTransform="matrix(1 0 0 1 1138.08 660.47)">
	<stop  offset="0" style="stop-color:#57A3E0"/>
	<stop  offset="0.5" style="stop-color:#2C9AE3"/>
	<stop  offset="1" style="stop-color:#1C8AD3"/>
</linearGradient>
<rect x="569" y="232" class="st8" width="159.5" height="43.1"/>
<rect x="569" y="232" class="st4" width="159.5" height="43.1"/>
<g class="st5">
	<path class="st6" d="M612.6,251.1c0-4.2,1.9-6.6,5.1-6.6c2.1,0,3.5,1,4.3,2.8l-1.2,0.7c-0.5-1.3-1.5-2.1-3.1-2.1
		c-2.2,0-3.4,1.7-3.4,4.3v1.9c0,2.6,1.3,4.1,3.4,4.1c1.6,0,2.7-0.9,3.2-2.3l1.2,0.8c-0.8,1.8-2.3,2.9-4.4,2.9
		C614.5,257.5,612.6,255.3,612.6,251.1z"/>
	<path class="st6" d="M625.8,257.3c-1,0-1.5-0.6-1.5-1.5V244h1.4V256h1.4v1.3H625.8z"/>
	<path class="st6" d="M635.9,257.3c-1.1,0-1.5-0.6-1.6-1.5h-0.1c-0.4,1.1-1.4,1.7-2.7,1.7c-2,0-3.1-1.1-3.1-2.8c0-1.7,1.3-2.7,4-2.7
		h1.8v-0.9c0-1.3-0.7-2-2.2-2c-1.1,0-1.9,0.5-2.4,1.4l-0.9-0.8c0.5-1,1.6-1.8,3.3-1.8c2.2,0,3.6,1.2,3.6,3.1v5.1h1.1v1.3H635.9z
		 M634.3,254.6v-1.5h-1.9c-1.6,0-2.4,0.5-2.4,1.4v0.4c0,0.9,0.7,1.4,1.8,1.4C633.2,256.3,634.3,255.6,634.3,254.6z"/>
	<path class="st6" d="M637.9,255.7l1-0.8c0.7,0.9,1.6,1.4,2.8,1.4c1.2,0,1.9-0.6,1.9-1.5c0-0.7-0.4-1.3-1.6-1.5l-0.7-0.1
		c-1.7-0.3-3-1-3-2.7c0-1.8,1.4-2.7,3.3-2.7c1.5,0,2.5,0.6,3.2,1.5l-1,0.9c-0.4-0.6-1.2-1.1-2.4-1.1c-1.2,0-1.8,0.6-1.8,1.4
		c0,0.9,0.6,1.3,1.8,1.4l0.7,0.1c2.1,0.3,2.8,1.2,2.8,2.6c0,1.8-1.3,2.9-3.4,2.9C639.9,257.5,638.7,256.8,637.9,255.7z"/>
	<path class="st6" d="M646.6,255.7l1-0.8c0.7,0.9,1.6,1.4,2.8,1.4c1.2,0,1.9-0.6,1.9-1.5c0-0.7-0.4-1.3-1.6-1.5l-0.7-0.1
		c-1.7-0.3-3-1-3-2.7c0-1.8,1.4-2.7,3.3-2.7c1.5,0,2.5,0.6,3.2,1.5l-1,0.9c-0.4-0.6-1.2-1.1-2.4-1.1c-1.2,0-1.8,0.6-1.8,1.4
		c0,0.9,0.6,1.3,1.8,1.4l0.7,0.1c2.1,0.3,2.8,1.2,2.8,2.6c0,1.8-1.3,2.9-3.4,2.9C648.5,257.5,647.4,256.8,646.6,255.7z"/>
	<path class="st6" d="M656.1,245v-0.2c0-0.5,0.3-0.8,0.9-0.8c0.6,0,0.9,0.3,0.9,0.8v0.2c0,0.5-0.3,0.8-0.9,0.8
		C656.3,245.8,656.1,245.5,656.1,245z M656.2,248h1.4v9.3h-1.4V248z"/>
	<path class="st6" d="M661.2,249.3h-1.5V248h1.5v-1.9c0-1.3,0.7-2.2,2-2.2h1.4v1.3h-2v2.8h2v1.3h-2v8h-1.4V249.3z"/>
	<path class="st6" d="M665.8,252.7c0-3,1.7-4.9,4.2-4.9c2.5,0,4,1.9,4,4.5v0.7h-6.7v0.4c0,1.6,1,2.8,2.8,2.8c1.2,0,2.1-0.6,2.6-1.6
		l1,0.7c-0.6,1.3-1.9,2.1-3.7,2.1C667.5,257.5,665.8,255.6,665.8,252.7z M667.3,251.8v0.1h5.1v-0.2c0-1.6-1-2.7-2.5-2.7
		C668.4,249,667.3,250.2,667.3,251.8z"/>
	<path class="st6" d="M676.4,257.3V248h1.4v1.7h0.1c0.3-0.9,1.2-1.7,2.7-1.7h0.6v1.4h-0.8c-1.5,0-2.5,0.7-2.5,1.5v6.3H676.4z"/>
</g>
<rect x="37.1" y="322.9" class="st6" width="159.5" height="92.9"/>
<rect x="37.1" y="322.9" class="st9" width="159.5" height="92.9"/>
<polygon class="st10" points="42.5,338.8 44.5,336.9 50.2,342.8 62.1,331.5 64,333.5 52.1,344.7 50.1,346.6 "/>
<rect x="37.1" y="423.9" class="st6" width="159.5" height="93"/>
<rect x="37.1" y="423.9" class="st11" width="159.5" height="93"/>
<polygon class="st12" points="53.3,442.2 47.1,448.5 45.1,446.5 51.4,440.2 45.1,433.8 47.1,431.8 53.3,438.2 59.6,431.8 
	61.6,433.8 55.3,440.2 61.6,446.5 59.6,448.5 "/>
<path class="st2" d="M91.3,353.8c0-6.2,5-11.2,11.2-11.2s11.2,5,11.2,11.2s-5,11.2-11.2,11.2S91.3,360,91.3,353.8"/>
<circle class="st13" cx="102.4" cy="353.8" r="11.2"/>
<path class="st2" d="M122,353.8c0-6.2,5-11.2,11.1-11.2s11.1,5,11.1,11.2s-5,11.2-11.1,11.2C126.9,365,122,360,122,353.8"/>
<ellipse class="st13" cx="133.1" cy="353.8" rx="11.1" ry="11.2"/>
<path class="st2" d="M153.1,353.8c0-6.2,5-11.2,11.2-11.2s11.2,5,11.2,11.2s-5,11.2-11.2,11.2S153.1,360,153.1,353.8"/>
<circle class="st13" cx="164.2" cy="353.8" r="11.2"/>
<path class="st2" d="M91.3,384.8c0-6.2,5-11.2,11.2-11.2s11.2,5,11.2,11.2s-5,11.2-11.2,11.2C96.3,395.9,91.3,390.9,91.3,384.8"/>
<circle class="st13" cx="102.4" cy="384.8" r="11.2"/>
<path class="st2" d="M121.7,384.7c0-6.2,5-11.2,11.2-11.2s11.2,5,11.2,11.2s-5,11.2-11.2,11.2C126.7,395.8,121.7,390.8,121.7,384.7"
	/>
<circle class="st13" cx="132.9" cy="384.7" r="11.2"/>
<path class="st14" d="M152.1,383.5c0-6.1,5-11.1,11.2-11.1s11.2,5,11.2,11.1s-5,11.1-11.2,11.1S152.1,389.7,152.1,383.5"/>
<ellipse class="st15" cx="163.3" cy="383.5" rx="11.2" ry="11.1"/>
<path class="st16" d="M143,497.9c0-6.2,5-11.2,11.2-11.2s11.2,5,11.2,11.2s-5,11.2-11.2,11.2S143,504.1,143,497.9"/>
<circle class="st17" cx="154.1" cy="497.9" r="11.2"/>
<path class="st18" d="M143.1,442.9c0-6.2,5-11.2,11.1-11.2s11.1,5,11.1,11.2s-5,11.2-11.1,11.2S143.1,449,143.1,442.9"/>
<ellipse class="st19" cx="154.2" cy="442.9" rx="11.1" ry="11.2"/>
<path class="st16" d="M168.8,470.3c0-6.2,5-11.2,11.2-11.2s11.2,5,11.2,11.2s-5,11.2-11.2,11.2S168.8,476.5,168.8,470.3"/>
<circle class="st17" cx="179.9" cy="470.3" r="11.2"/>
<path class="st16" d="M143,470c0-6.2,5-11.2,11.2-11.2s11.2,5,11.2,11.2s-5,11.2-11.2,11.2C148,481.1,143,476.1,143,470"/>
<circle class="st17" cx="154.1" cy="470" r="11.2"/>
<path class="st16" d="M168.8,443.2c0-6.2,5-11.2,11.2-11.2s11.2,5,11.2,11.2s-5,11.2-11.2,11.2C173.8,454.4,168.8,449.4,168.8,443.2
	"/>
<circle class="st17" cx="179.9" cy="443.2" r="11.2"/>
<path class="st14" d="M89.5,443.1c0-6.2,5-11.2,11.2-11.2s11.2,5,11.2,11.2s-5,11.2-11.2,11.2S89.5,449.3,89.5,443.1"/>
<circle class="st15" cx="100.6" cy="443.1" r="11.2"/>
<path class="st14" d="M90.2,470.3c0-6.2,5-11.2,11.2-11.2s11.2,5,11.2,11.2s-5,11.2-11.2,11.2S90.2,476.5,90.2,470.3"/>
<circle class="st15" cx="101.3" cy="470.3" r="11.2"/>
<path class="st14" d="M168.8,498.1c0-6.2,5-11.2,11.2-11.2s11.2,5,11.2,11.2s-5,11.2-11.2,11.2C173.8,509.2,168.8,504.2,168.8,498.1
	"/>
<circle class="st15" cx="179.9" cy="498.1" r="11.2"/>
<path class="st18" d="M116.8,442.7c0-6.2,5-11.2,11.2-11.2s11.2,5,11.2,11.2s-5,11.2-11.2,11.2C121.8,453.9,116.8,448.9,116.8,442.7
	"/>
<circle class="st19" cx="128" cy="442.7" r="11.2"/>
<path class="st14" d="M64,469.8c0-6.1,5-11.1,11.2-11.1s11.2,5,11.2,11.1s-5,11.1-11.2,11.1S64,475.9,64,469.8"/>
<ellipse class="st15" cx="75.2" cy="469.8" rx="11.2" ry="11.1"/>
<path class="st18" d="M64.1,497.7c0-6.2,5-11.2,11.2-11.2s11.2,5,11.2,11.2s-5,11.2-11.2,11.2C69.1,508.9,64.1,503.9,64.1,497.7"/>
<circle class="st19" cx="75.3" cy="497.7" r="11.2"/>
<path class="st16" d="M89.5,497.7c0-6.2,5-11.2,11.2-11.2s11.2,5,11.2,11.2s-5,11.2-11.2,11.2S89.5,503.9,89.5,497.7"/>
<circle class="st17" cx="100.6" cy="497.7" r="11.2"/>
<path class="st18" d="M116.5,470.3c0-6.2,5-11.2,11.2-11.2s11.2,5,11.2,11.2s-5,11.2-11.2,11.2S116.5,476.5,116.5,470.3"/>
<circle class="st19" cx="127.6" cy="470.3" r="11.2"/>
<path class="st18" d="M116.1,497.9c0-6.2,5-11.2,11.1-11.2c6.1,0,11.1,5,11.1,11.2s-5,11.2-11.1,11.2
	C121.1,509.1,116.1,504.1,116.1,497.9"/>
<ellipse class="st19" cx="127.2" cy="497.9" rx="11.1" ry="11.2"/>
<path class="st16" d="M302.1,65.2c0-6.2,5-11.2,11.2-11.2s11.2,5,11.2,11.2s-5,11.2-11.2,11.2C307.1,76.4,302.1,71.4,302.1,65.2"/>
<circle class="st17" cx="313.3" cy="65.2" r="11.2"/>
<path class="st20" d="M327.5,76.4c0-6.2,5-11.2,11.2-11.2s11.2,5,11.2,11.2s-5,11.2-11.2,11.2C332.5,87.5,327.5,82.5,327.5,76.4"/>
<circle class="st21" cx="338.7" cy="76.4" r="11.2"/>
<path class="st18" d="M299.7,94.6c0-6.2,5-11.2,11.2-11.2s11.2,5,11.2,11.2s-5,11.2-11.2,11.2C304.7,105.8,299.7,100.8,299.7,94.6"
	/>
<circle class="st19" cx="310.9" cy="94.6" r="11.2"/>
<path class="st16" d="M338.7,49.5c0-6.2,5-11.2,11.2-11.2s11.2,5,11.2,11.2s-5,11.2-11.2,11.2S338.7,55.7,338.7,49.5"/>
<circle class="st17" cx="349.9" cy="49.5" r="11.2"/>
<path class="st16" d="M353,76.9c0-6.2,5-11.2,11.2-11.2s11.2,5,11.2,11.2s-5,11.2-11.2,11.2C358,88,353,83,353,76.9"/>
<circle class="st17" cx="364.1" cy="76.9" r="11.2"/>
<path class="st16" d="M327.5,103.3c0-6.2,5-11.2,11.2-11.2s11.2,5,11.2,11.2s-5,11.2-11.2,11.2C332.5,114.4,327.5,109.4,327.5,103.3
	"/>
<circle class="st17" cx="338.7" cy="103.3" r="11.2"/>
<path class="st14" d="M275.9,77.7c0-6.2,5-11.2,11.1-11.2s11.1,5,11.1,11.2s-5,11.2-11.1,11.2S275.9,83.9,275.9,77.7"/>
<ellipse class="st15" cx="287" cy="77.7" rx="11.1" ry="11.2"/>
<path class="st20" d="M281.6,116.3c0-6.2,5-11.2,11.2-11.2s11.2,5,11.2,11.2s-5,11.2-11.2,11.2S281.6,122.5,281.6,116.3"/>
<circle class="st21" cx="292.7" cy="116.3" r="11.2"/>
<path class="st20" d="M356,104.2c0-6.2,5-11.2,11.2-11.2s11.2,5,11.2,11.2s-5,11.2-11.2,11.2C361,115.4,356,110.4,356,104.2"/>
<circle class="st21" cx="367.1" cy="104.2" r="11.2"/>
<path class="st14" d="M310.1,123.9c0-6.2,5-11.2,11.2-11.2s11.2,5,11.2,11.2c0,6.2-5,11.2-11.2,11.2S310.1,130.1,310.1,123.9"/>
<circle class="st15" cx="321.3" cy="123.9" r="11.2"/>
<path class="st20" d="M261.5,48.9c0-6.2,5-11.2,11.1-11.2s11.1,5,11.1,11.2s-5,11.2-11.1,11.2S261.5,55.1,261.5,48.9"/>
<ellipse class="st21" cx="272.6" cy="48.9" rx="11.1" ry="11.2"/>
<path class="st22" d="M247.5,73.3c0-6.2,5-11.2,11.2-11.2s11.2,5,11.2,11.2s-5,11.2-11.2,11.2C252.5,84.4,247.5,79.4,247.5,73.3"/>
<circle class="st23" cx="258.7" cy="73.3" r="11.2"/>
<path class="st18" d="M255.7,105.8c0-6.2,5-11.2,11.2-11.2c6.2,0,11.2,5,11.2,11.2s-5,11.2-11.2,11.2
	C260.7,116.9,255.7,111.9,255.7,105.8"/>
<circle class="st19" cx="266.8" cy="105.8" r="11.2"/>
<path class="st14" d="M383.1,87.5c0-6.2,5-11.2,11.1-11.2s11.1,5,11.1,11.2s-5,11.2-11.1,11.2S383.1,93.7,383.1,87.5"/>
<ellipse class="st15" cx="394.2" cy="87.5" rx="11.1" ry="11.2"/>
<path class="st14" d="M314.7,40.3c0-6.2,5-11.2,11.2-11.2s11.2,5,11.2,11.2s-5,11.2-11.2,11.2C319.7,51.4,314.7,46.4,314.7,40.3"/>
<circle class="st15" cx="325.9" cy="40.3" r="11.2"/>
<path class="st20" d="M372.1,60c0-6.1,5-11.1,11.2-11.1s11.2,5,11.2,11.1s-5,11.1-11.2,11.1S372.1,66.1,372.1,60"/>
<ellipse class="st21" cx="383.2" cy="60" rx="11.2" ry="11.1"/>
<path class="st18" d="M389.1,112.7c0-6.2,5-11.2,11.2-11.2s11.2,5,11.2,11.2s-5,11.2-11.2,11.2C394.1,123.9,389.1,118.9,389.1,112.7
	"/>
<circle class="st19" cx="400.3" cy="112.7" r="11.2"/>
<path class="st16" d="M364.5,131.5c0-6.2,5-11.2,11.2-11.2s11.2,5,11.2,11.2s-5,11.2-11.2,11.2C369.5,142.6,364.5,137.6,364.5,131.5
	"/>
<circle class="st17" cx="375.7" cy="131.5" r="11.2"/>
<path class="st18" d="M336.9,135.1c0-6.2,5-11.2,11.2-11.2s11.2,5,11.2,11.2s-5,11.2-11.2,11.2C341.9,146.2,336.9,141.2,336.9,135.1
	"/>
<circle class="st19" cx="348.1" cy="135.1" r="11.2"/>
<path class="st18" d="M288.1,41.3c0-6.2,5-11.2,11.2-11.2s11.2,5,11.2,11.2s-5,11.2-11.2,11.2S288.1,47.5,288.1,41.3"/>
<circle class="st19" cx="299.2" cy="41.3" r="11.2"/>
<g class="st5">
	<path class="st24" d="M268.1,172.4l-3.4-14h1.8l1.5,6.7l1.2,5.2h0l1.3-5.2l1.8-6.7h1.9l1.7,6.7l1.3,5.2h0.1l1.2-5.2l1.6-6.7h1.7
		l-3.6,14h-1.9l-1.8-7l-1.3-5.1h0l-1.3,5.1l-1.9,7H268.1z"/>
	<path class="st24" d="M282.8,167.2c0-3.3,1.8-5.4,4.6-5.4c2.8,0,4.5,2.1,4.5,5v0.8h-7.4v0.5c0,1.8,1.1,3.1,3.1,3.1
		c1.3,0,2.3-0.6,2.8-1.8l1.1,0.8c-0.7,1.4-2.1,2.4-4.1,2.4C284.7,172.6,282.8,170.5,282.8,167.2z M284.5,166.3v0.1h5.7v-0.2
		c0-1.8-1.1-3-2.7-3C285.7,163.2,284.5,164.5,284.5,166.3z"/>
	<path class="st24" d="M294.4,158.7v-0.3c0-0.5,0.3-0.9,1-0.9s1,0.4,1,0.9v0.3c0,0.5-0.3,0.9-1,0.9S294.4,159.3,294.4,158.7z
		 M294.6,162.1h1.6v10.3h-1.6V162.1z"/>
	<path class="st24" d="M303.3,176.6c-3.2,0-4.5-0.9-4.5-2.5c0-1.1,0.6-1.7,1.6-2v-0.2c-0.6-0.3-0.9-0.7-0.9-1.4c0-1,0.7-1.5,1.8-1.8
		v-0.1c-1.2-0.6-1.9-1.7-1.9-3.2c0-2.1,1.5-3.6,3.9-3.6c0.7,0,1.4,0.1,2,0.4V162c0-0.8,0.3-1.4,1.2-1.4h1.5v1.4h-2v0.7
		c0.7,0.6,1.2,1.6,1.2,2.7c0,2.1-1.5,3.6-3.9,3.6c-0.3,0-0.7,0-1-0.1c-0.7,0.2-1.4,0.5-1.4,1.2c0,0.6,0.6,0.8,1.6,0.8h2.2
		c2.6,0,3.7,1,3.7,2.7C308.3,175.7,306.6,176.6,303.3,176.6z M304.7,172.3h-3.4c-0.7,0.3-1,0.8-1,1.4c0,0.9,0.6,1.6,2.2,1.6h1.5
		c1.8,0,2.8-0.6,2.8-1.7C306.8,172.8,306.3,172.3,304.7,172.3z M305.4,165.7v-0.6c0-1.4-0.9-2-2.2-2s-2.2,0.6-2.2,2v0.6
		c0,1.4,0.9,2,2.2,2S305.4,167,305.4,165.7z"/>
	<path class="st24" d="M310.2,157.6h1.6v6.2h0.1c0.5-1.2,1.4-1.9,2.9-1.9c2.1,0,3.5,1.4,3.5,3.9v6.6h-1.6V166c0-1.8-0.8-2.8-2.3-2.8
		c-1.3,0-2.5,0.6-2.5,2v7.2h-1.6V157.6z"/>
	<path class="st24" d="M323.8,172.4c-1.1,0-1.7-0.7-1.7-1.7v-7.2h-1.7v-1.4h1c0.7,0,0.9-0.2,0.9-0.9v-1.9h1.4v2.9h2.3v1.4h-2.3v7.5
		h2.1v1.4H323.8z"/>
	<path class="st24" d="M327.7,167.2c0-3.3,1.8-5.4,4.6-5.4c2.8,0,4.5,2.1,4.5,5v0.8h-7.4v0.5c0,1.8,1.1,3.1,3.1,3.1
		c1.3,0,2.3-0.6,2.8-1.8l1.1,0.8c-0.7,1.4-2.1,2.4-4.1,2.4C329.6,172.6,327.7,170.5,327.7,167.2z M329.4,166.3v0.1h5.7v-0.2
		c0-1.8-1.1-3-2.7-3C330.6,163.2,329.4,164.5,329.4,166.3z"/>
	<path class="st24" d="M346.1,170.7L346.1,170.7c-0.7,1.3-1.7,1.9-3.1,1.9c-2.6,0-4.2-2.1-4.2-5.4s1.6-5.4,4.2-5.4
		c1.4,0,2.5,0.6,3,1.9h0.1v-6.2h1.6v14.8h-1.6V170.7z M346.1,169.1v-3.8c0-1.1-1.2-2-2.7-2c-1.8,0-2.9,1.2-2.9,3.1v1.8
		c0,1.8,1.1,3.1,2.9,3.1C344.9,171.2,346.1,170.4,346.1,169.1z"/>
	<path class="st24" d="M362.5,170.7L362.5,170.7c-0.7,1.3-1.7,1.9-3.1,1.9c-2.6,0-4.2-2.1-4.2-5.4s1.6-5.4,4.2-5.4
		c1.4,0,2.5,0.6,3,1.9h0.1v-6.2h1.6v14.8h-1.6V170.7z M362.5,169.1v-3.8c0-1.1-1.2-2-2.7-2c-1.8,0-2.9,1.2-2.9,3.1v1.8
		c0,1.8,1.1,3.1,2.9,3.1C361.3,171.2,362.5,170.4,362.5,169.1z"/>
	<path class="st24" d="M375,172.4c-1.2,0-1.7-0.7-1.8-1.7h-0.1c-0.4,1.3-1.5,1.9-3,1.9c-2.2,0-3.5-1.2-3.5-3.1c0-1.9,1.4-3,4.4-3h2
		v-1c0-1.5-0.8-2.3-2.4-2.3c-1.2,0-2.1,0.6-2.6,1.5l-1-0.9c0.6-1.1,1.8-2,3.7-2c2.5,0,4,1.3,4,3.5v5.7h1.2v1.4H375z M373.1,169.4
		v-1.7H371c-1.8,0-2.6,0.6-2.6,1.6v0.4c0,1,0.8,1.6,2,1.6C372,171.3,373.1,170.5,373.1,169.4z"/>
	<path class="st24" d="M380.5,172.4c-1.1,0-1.7-0.7-1.7-1.7v-7.2h-1.7v-1.4h1c0.7,0,0.9-0.2,0.9-0.9v-1.9h1.4v2.9h2.3v1.4h-2.3v7.5
		h2.1v1.4H380.5z"/>
	<path class="st24" d="M392.7,172.4c-1.2,0-1.7-0.7-1.8-1.7h-0.1c-0.4,1.3-1.5,1.9-3,1.9c-2.2,0-3.5-1.2-3.5-3.1c0-1.9,1.4-3,4.4-3
		h2v-1c0-1.5-0.8-2.3-2.4-2.3c-1.2,0-2.1,0.6-2.6,1.5l-1-0.9c0.6-1.1,1.8-2,3.7-2c2.5,0,4,1.3,4,3.5v5.7h1.2v1.4H392.7z
		 M390.8,169.4v-1.7h-2.1c-1.8,0-2.6,0.6-2.6,1.6v0.4c0,1,0.8,1.6,2,1.6C389.7,171.3,390.8,170.5,390.8,169.4z"/>
</g>
<path class="st16" d="M89.5,65.2c0-6.2,5-11.2,11.2-11.2s11.2,5,11.2,11.2s-5,11.2-11.2,11.2S89.5,71.4,89.5,65.2"/>
<circle class="st17" cx="100.6" cy="65.2" r="11.2"/>
<path class="st2" d="M114.9,76.4c0-6.2,5-11.2,11.2-11.2c6.2,0,11.2,5,11.2,11.2s-5,11.2-11.2,11.2
	C119.9,87.5,114.9,82.5,114.9,76.4"/>
<circle class="st13" cx="126.1" cy="76.4" r="11.2"/>
<path class="st18" d="M87.1,94.6c0-6.2,5-11.2,11.2-11.2s11.2,5,11.2,11.2s-5,11.2-11.2,11.2C92.1,105.8,87.1,100.8,87.1,94.6"/>
<circle class="st19" cx="98.2" cy="94.6" r="11.2"/>
<path class="st16" d="M126.1,49.5c0-6.2,5-11.2,11.2-11.2s11.2,5,11.2,11.2s-5,11.2-11.2,11.2S126.1,55.7,126.1,49.5"/>
<circle class="st17" cx="137.2" cy="49.5" r="11.2"/>
<path class="st16" d="M140.3,76.9c0-6.2,5-11.2,11.2-11.2s11.2,5,11.2,11.2s-5,11.2-11.2,11.2C145.3,88,140.3,83,140.3,76.9"/>
<circle class="st17" cx="151.5" cy="76.9" r="11.2"/>
<path class="st16" d="M114.9,103.3c0-6.2,5-11.2,11.2-11.2c6.2,0,11.2,5,11.2,11.2s-5,11.2-11.2,11.2
	C119.9,114.4,114.9,109.4,114.9,103.3"/>
<circle class="st17" cx="126.1" cy="103.3" r="11.2"/>
<path class="st14" d="M63.3,77.7c0-6.2,5-11.2,11.2-11.2s11.2,5,11.2,11.2s-5,11.2-11.2,11.2C68.3,88.9,63.3,83.9,63.3,77.7"/>
<circle class="st15" cx="74.5" cy="77.7" r="11.2"/>
<path class="st2" d="M68.9,116.3c0-6.2,5-11.2,11.2-11.2s11.2,5,11.2,11.2s-5,11.2-11.2,11.2S68.9,122.5,68.9,116.3"/>
<circle class="st13" cx="80.1" cy="116.3" r="11.2"/>
<path class="st2" d="M143.5,104.2c0-6.2,5-11.2,11.2-11.2s11.2,5,11.2,11.2s-5,11.2-11.2,11.2C148.5,115.4,143.5,110.4,143.5,104.2"
	/>
<circle class="st13" cx="154.6" cy="104.2" r="11.2"/>
<path class="st14" d="M97.6,123.9c0-6.2,5-11.2,11.2-11.2s11.2,5,11.2,11.2c0,6.2-5,11.2-11.2,11.2S97.6,130.1,97.6,123.9"/>
<circle class="st15" cx="108.8" cy="123.9" r="11.2"/>
<path class="st2" d="M48.9,48.9c0-6.2,5-11.2,11.2-11.2s11.2,5,11.2,11.2s-5,11.2-11.2,11.2C53.9,60.1,48.9,55.1,48.9,48.9"/>
<circle class="st13" cx="60.1" cy="48.9" r="11.2"/>
<path class="st14" d="M34.9,73.3c0-6.2,5-11.2,11.2-11.2s11.2,5,11.2,11.2s-5,11.2-11.2,11.2C39.9,84.4,34.9,79.4,34.9,73.3"/>
<circle class="st15" cx="46" cy="73.3" r="11.2"/>
<path class="st18" d="M43,105.8c0-6.2,5-11.2,11.2-11.2s11.2,5,11.2,11.2s-5,11.2-11.2,11.2C48,116.9,43,111.9,43,105.8"/>
<circle class="st19" cx="54.2" cy="105.8" r="11.2"/>
<path class="st14" d="M170.5,87.5c0-6.2,5-11.2,11.2-11.2s11.2,5,11.2,11.2s-5,11.2-11.2,11.2S170.5,93.7,170.5,87.5"/>
<circle class="st15" cx="181.6" cy="87.5" r="11.2"/>
<path class="st14" d="M102.1,40.3c0-6.2,5-11.2,11.2-11.2s11.2,5,11.2,11.2s-5,11.2-11.2,11.2C107.1,51.4,102.1,46.4,102.1,40.3"/>
<circle class="st15" cx="113.2" cy="40.3" r="11.2"/>
<path class="st2" d="M159.4,60c0-6.1,5-11.1,11.2-11.1s11.2,5,11.2,11.1s-5,11.1-11.2,11.1S159.4,66.1,159.4,60"/>
<ellipse class="st13" cx="170.6" cy="60" rx="11.2" ry="11.1"/>
<path class="st18" d="M176.6,112.7c0-6.2,5-11.2,11.2-11.2s11.2,5,11.2,11.2s-5,11.2-11.2,11.2C181.6,123.9,176.6,118.9,176.6,112.7
	"/>
<circle class="st19" cx="187.7" cy="112.7" r="11.2"/>
<path class="st16" d="M152,131.5c0-6.2,5-11.2,11.1-11.2s11.1,5,11.1,11.2s-5,11.2-11.1,11.2S152,137.6,152,131.5"/>
<ellipse class="st17" cx="163.1" cy="131.5" rx="11.1" ry="11.2"/>
<path class="st18" d="M124.3,135.1c0-6.2,5-11.2,11.2-11.2s11.2,5,11.2,11.2s-5,11.2-11.2,11.2C129.3,146.2,124.3,141.2,124.3,135.1
	"/>
<circle class="st19" cx="135.4" cy="135.1" r="11.2"/>
<path class="st18" d="M75.5,41.3c0-6.2,5-11.2,11.1-11.2s11.1,5,11.1,11.2s-5,11.2-11.1,11.2S75.5,47.5,75.5,41.3"/>
<ellipse class="st19" cx="86.6" cy="41.3" rx="11.1" ry="11.2"/>
<g class="st5">
	<path class="st24" d="M59.9,165.4c0-4.7,2.3-7.2,5.9-7.2s5.9,2.5,5.9,7.2s-2.3,7.2-5.9,7.2S59.9,170.1,59.9,165.4z M69.9,166.6
		v-2.3c0-2.8-1.7-4.6-4.1-4.6s-4.1,1.8-4.1,4.6v2.3c0,2.8,1.7,4.6,4.1,4.6S69.9,169.3,69.9,166.6z"/>
	<path class="st24" d="M74.6,172.4v-10.3h1.6v1.9h0.1c0.4-1,1.3-1.9,3-1.9h0.6v1.6H79c-1.7,0-2.8,0.7-2.8,1.7v7H74.6z"/>
	<path class="st24" d="M81.8,158.7v-0.3c0-0.5,0.3-0.9,1-0.9s1,0.4,1,0.9v0.3c0,0.5-0.3,0.9-1,0.9S81.8,159.3,81.8,158.7z M82,162.1
		h1.6v10.3H82V162.1z"/>
	<path class="st24" d="M90.7,176.6c-3.2,0-4.5-0.9-4.5-2.5c0-1.1,0.6-1.7,1.6-2v-0.2c-0.6-0.3-0.9-0.7-0.9-1.4c0-1,0.7-1.5,1.8-1.8
		v-0.1c-1.2-0.6-1.9-1.7-1.9-3.2c0-2.1,1.5-3.6,3.9-3.6c0.7,0,1.4,0.1,2,0.4V162c0-0.8,0.3-1.4,1.2-1.4h1.5v1.4h-2v0.7
		c0.7,0.6,1.2,1.6,1.2,2.7c0,2.1-1.5,3.6-3.9,3.6c-0.3,0-0.7,0-1-0.1c-0.7,0.2-1.4,0.5-1.4,1.2c0,0.6,0.6,0.8,1.6,0.8H92
		c2.6,0,3.7,1,3.7,2.7C95.7,175.7,94,176.6,90.7,176.6z M92.1,172.3h-3.4c-0.7,0.3-1,0.8-1,1.4c0,0.9,0.6,1.6,2.2,1.6h1.5
		c1.8,0,2.8-0.6,2.8-1.7C94.2,172.8,93.7,172.3,92.1,172.3z M92.8,165.7v-0.6c0-1.4-0.9-2-2.2-2s-2.2,0.6-2.2,2v0.6
		c0,1.4,0.9,2,2.2,2S92.8,167,92.8,165.7z"/>
	<path class="st24" d="M97.4,158.7v-0.3c0-0.5,0.3-0.9,1-0.9s1,0.4,1,0.9v0.3c0,0.5-0.3,0.9-1,0.9S97.4,159.3,97.4,158.7z
		 M97.6,162.1h1.6v10.3h-1.6V162.1z"/>
	<path class="st24" d="M102.6,172.4v-10.3h1.6v1.7h0.1c0.5-1.2,1.4-1.9,2.9-1.9c2.1,0,3.5,1.4,3.5,3.9v6.6H109V166
		c0-1.8-0.8-2.8-2.3-2.8c-1.3,0-2.5,0.6-2.5,2v7.2H102.6z"/>
	<path class="st24" d="M121.5,172.4c-1.2,0-1.7-0.7-1.8-1.7h-0.1c-0.4,1.3-1.5,1.9-3,1.9c-2.2,0-3.5-1.2-3.5-3.1c0-1.9,1.4-3,4.4-3
		h2v-1c0-1.5-0.8-2.3-2.4-2.3c-1.2,0-2.1,0.6-2.6,1.5l-1-0.9c0.6-1.1,1.8-2,3.7-2c2.5,0,4,1.3,4,3.5v5.7h1.2v1.4H121.5z
		 M119.6,169.4v-1.7h-2.1c-1.8,0-2.6,0.6-2.6,1.6v0.4c0,1,0.8,1.6,2,1.6C118.4,171.3,119.6,170.5,119.6,169.4z"/>
	<path class="st24" d="M126.4,172.4c-1.1,0-1.7-0.7-1.7-1.7v-13.2h1.6V171h1.5v1.4H126.4z"/>
	<path class="st24" d="M135,158.4h4.7c3.5,0,5.7,2.3,5.7,7s-2.2,7-5.7,7H135V158.4z M139.7,170.9c2.3,0,3.9-1.6,3.9-4.4v-2.3
		c0-2.8-1.6-4.4-3.9-4.4h-3v11H139.7z"/>
	<path class="st24" d="M155.8,172.4c-1.2,0-1.7-0.7-1.8-1.7h-0.1c-0.4,1.3-1.5,1.9-3,1.9c-2.2,0-3.5-1.2-3.5-3.1c0-1.9,1.4-3,4.4-3
		h2v-1c0-1.5-0.8-2.3-2.4-2.3c-1.2,0-2.1,0.6-2.6,1.5l-1-0.9c0.6-1.1,1.8-2,3.7-2c2.5,0,4,1.3,4,3.5v5.7h1.2v1.4H155.8z
		 M153.9,169.4v-1.7h-2.1c-1.8,0-2.6,0.6-2.6,1.6v0.4c0,1,0.8,1.6,2,1.6C152.8,171.3,153.9,170.5,153.9,169.4z"/>
	<path class="st24" d="M161.3,172.4c-1.1,0-1.7-0.7-1.7-1.7v-7.2h-1.7v-1.4h1c0.7,0,0.9-0.2,0.9-0.9v-1.9h1.4v2.9h2.3v1.4h-2.3v7.5
		h2.1v1.4H161.3z"/>
	<path class="st24" d="M173.5,172.4c-1.2,0-1.7-0.7-1.8-1.7h-0.1c-0.4,1.3-1.5,1.9-3,1.9c-2.2,0-3.5-1.2-3.5-3.1c0-1.9,1.4-3,4.4-3
		h2v-1c0-1.5-0.8-2.3-2.4-2.3c-1.2,0-2.1,0.6-2.6,1.5l-1-0.9c0.6-1.1,1.8-2,3.7-2c2.5,0,4,1.3,4,3.5v5.7h1.2v1.4H173.5z
		 M171.6,169.4v-1.7h-2.1c-1.8,0-2.6,0.6-2.6,1.6v0.4c0,1,0.8,1.6,2,1.6C170.5,171.3,171.6,170.5,171.6,169.4z"/>
</g>
<rect x="249.8" y="323" class="st6" width="159.4" height="92.9"/>
<rect x="249.8" y="323" class="st9" width="159.4" height="92.9"/>
<polygon class="st10" points="255.2,338.9 257.1,337 262.8,342.9 274.7,331.6 276.6,333.6 264.7,344.9 262.7,346.7 "/>
<rect x="249.8" y="424" class="st6" width="159.4" height="93"/>
<rect x="249.8" y="424" class="st11" width="159.4" height="93"/>
<polygon class="st12" points="266,442.3 259.7,448.6 257.7,446.6 264,440.3 257.7,434 259.7,432 266,438.3 272.3,432 274.3,434 
	268,440.3 274.3,446.6 272.3,448.6 "/>
<path class="st16" d="M303.9,353.9c0-6.2,5-11.2,11.2-11.2s11.2,5,11.2,11.2s-5,11.2-11.2,11.2S303.9,360.1,303.9,353.9"/>
<circle class="st17" cx="315.1" cy="353.9" r="11.2"/>
<path class="st16" d="M334.5,353.9c0-6.2,5-11.2,11.2-11.2s11.2,5,11.2,11.2s-5,11.2-11.2,11.2S334.5,360.1,334.5,353.9"/>
<circle class="st17" cx="345.7" cy="353.9" r="11.2"/>
<path class="st14" d="M365.7,353.9c0-6.2,5-11.2,11.1-11.2s11.1,5,11.1,11.2s-5,11.2-11.1,11.2S365.7,360.1,365.7,353.9"/>
<ellipse class="st15" cx="376.8" cy="353.9" rx="11.1" ry="11.2"/>
<path class="st16" d="M303.9,384.9c0-6.2,5-11.2,11.2-11.2s11.2,5,11.2,11.2s-5,11.2-11.2,11.2S303.9,391.1,303.9,384.9"/>
<circle class="st17" cx="315.1" cy="384.9" r="11.2"/>
<path class="st16" d="M334.3,384.8c0-6.2,5-11.2,11.2-11.2s11.2,5,11.2,11.2s-5,11.2-11.2,11.2C339.3,395.9,334.3,390.9,334.3,384.8
	"/>
<circle class="st17" cx="345.4" cy="384.8" r="11.2"/>
<path class="st14" d="M364.7,383.6c0-6.1,5-11.1,11.2-11.1s11.2,5,11.2,11.1s-5,11.1-11.2,11.1S364.7,389.8,364.7,383.6"/>
<ellipse class="st15" cx="375.9" cy="383.6" rx="11.2" ry="11.1"/>
<path class="st14" d="M273.4,384.2c0-6.2,5-11.2,11.2-11.2s11.2,5,11.2,11.2s-5,11.2-11.2,11.2C278.4,395.3,273.4,390.3,273.4,384.2
	"/>
<circle class="st15" cx="284.6" cy="384.2" r="11.2"/>
<path class="st2" d="M355.5,498c0-6.1,5-11.1,11.2-11.1s11.2,5,11.2,11.1s-5,11.1-11.2,11.1S355.5,504.1,355.5,498"/>
<ellipse class="st13" cx="366.7" cy="498" rx="11.2" ry="11.1"/>
<path class="st18" d="M355.6,443c0-6.2,5-11.2,11.2-11.2s11.2,5,11.2,11.2s-5,11.2-11.2,11.2C360.6,454.1,355.6,449.1,355.6,443"/>
<circle class="st19" cx="366.8" cy="443" r="11.2"/>
<path class="st2" d="M381.3,470.5c0-6.2,5-11.2,11.2-11.2s11.2,5,11.2,11.2s-5,11.2-11.2,11.2C386.3,481.6,381.3,476.6,381.3,470.5"
	/>
<circle class="st13" cx="392.5" cy="470.5" r="11.2"/>
<path class="st2" d="M355.5,470.1c0-6.2,5-11.2,11.2-11.2s11.2,5,11.2,11.2s-5,11.2-11.2,11.2C360.5,481.3,355.5,476.3,355.5,470.1"
	/>
<circle class="st13" cx="366.7" cy="470.1" r="11.2"/>
<path class="st2" d="M381.3,443.3c0-6.2,5-11.2,11.2-11.2s11.2,5,11.2,11.2s-5,11.2-11.2,11.2S381.3,449.5,381.3,443.3"/>
<circle class="st13" cx="392.5" cy="443.3" r="11.2"/>
<path class="st14" d="M302.1,443.2c0-6.1,5-11.1,11.2-11.1s11.2,5,11.2,11.1s-5,11.1-11.2,11.1C307.1,454.3,302.1,449.3,302.1,443.2
	"/>
<ellipse class="st15" cx="313.3" cy="443.2" rx="11.2" ry="11.1"/>
<path class="st14" d="M302.7,470.5c0-6.2,5-11.2,11.2-11.2s11.2,5,11.2,11.2s-5,11.2-11.2,11.2C307.7,481.6,302.7,476.6,302.7,470.5
	"/>
<circle class="st15" cx="313.9" cy="470.5" r="11.2"/>
<path class="st2" d="M381.3,498.2c0-6.2,5-11.2,11.2-11.2s11.2,5,11.2,11.2s-5,11.2-11.2,11.2C386.3,509.3,381.3,504.3,381.3,498.2"
	/>
<circle class="st13" cx="392.5" cy="498.2" r="11.2"/>
<path class="st18" d="M329.5,442.8c0-6.1,5-11.1,11.2-11.1s11.2,5,11.2,11.1s-5,11.1-11.2,11.1S329.5,448.9,329.5,442.8"/>
<ellipse class="st19" cx="340.6" cy="442.8" rx="11.2" ry="11.1"/>
<path class="st2" d="M276.8,497.8c0-6.2,5-11.2,11.2-11.2s11.2,5,11.2,11.2s-5,11.2-11.2,11.2S276.8,504,276.8,497.8"/>
<circle class="st13" cx="287.9" cy="497.8" r="11.2"/>
<path class="st16" d="M302.1,497.8c0-6.2,5-11.2,11.2-11.2s11.2,5,11.2,11.2s-5,11.2-11.2,11.2S302.1,504,302.1,497.8"/>
<circle class="st17" cx="313.3" cy="497.8" r="11.2"/>
<path class="st18" d="M329,470.5c0-6.2,5-11.2,11.2-11.2s11.2,5,11.2,11.2s-5,11.2-11.2,11.2C334,481.6,329,476.6,329,470.5"/>
<circle class="st19" cx="340.1" cy="470.5" r="11.2"/>
<path class="st18" d="M328.6,498c0-6.1,5-11.1,11.2-11.1s11.2,5,11.2,11.1s-5,11.1-11.2,11.1S328.6,504.1,328.6,498"/>
<ellipse class="st19" cx="339.8" cy="498" rx="11.2" ry="11.1"/>
<rect x="569.1" y="322.9" class="st6" width="159.5" height="92.9"/>
<rect x="569.1" y="322.9" class="st9" width="159.5" height="92.9"/>
<polygon class="st10" points="574.5,338.8 576.5,336.9 582.2,342.8 594.1,331.5 596,333.5 584.1,344.7 582.1,346.6 "/>
<rect x="569.1" y="423.9" class="st6" width="159.5" height="93"/>
<rect x="569.1" y="423.9" class="st11" width="159.5" height="93"/>
<polygon class="st12" points="585.4,442.2 579,448.5 577,446.5 583.4,440.2 577,433.8 579,431.8 585.4,438.2 591.7,431.8 
	593.7,433.8 587.4,440.2 593.7,446.5 591.7,448.5 "/>
<path class="st16" d="M623.3,353.8c0-6.2,5-11.2,11.2-11.2s11.2,5,11.2,11.2s-5,11.2-11.2,11.2S623.3,360,623.3,353.8"/>
<circle class="st17" cx="634.5" cy="353.8" r="11.2"/>
<path class="st18" d="M653.9,353.8c0-6.2,5-11.2,11.2-11.2s11.2,5,11.2,11.2s-5,11.2-11.2,11.2S653.9,360,653.9,353.8"/>
<circle class="st19" cx="665.1" cy="353.8" r="11.2"/>
<path class="st14" d="M685,353.8c0-6.2,5-11.2,11.2-11.2s11.2,5,11.2,11.2s-5,11.2-11.2,11.2S685,360,685,353.8"/>
<circle class="st15" cx="696.2" cy="353.8" r="11.2"/>
<path class="st2" d="M623.3,384.8c0-6.2,5-11.2,11.2-11.2s11.2,5,11.2,11.2s-5,11.2-11.2,11.2S623.3,390.9,623.3,384.8"/>
<circle class="st13" cx="634.5" cy="384.8" r="11.2"/>
<path class="st16" d="M653.7,384.7c0-6.2,5-11.2,11.2-11.2s11.2,5,11.2,11.2s-5,11.2-11.2,11.2S653.7,390.8,653.7,384.7"/>
<circle class="st17" cx="664.9" cy="384.7" r="11.2"/>
<path class="st18" d="M684.2,383.5c0-6.1,5-11.1,11.1-11.1s11.1,5,11.1,11.1s-5,11.1-11.1,11.1S684.2,389.7,684.2,383.5"/>
<circle class="st19" cx="695.3" cy="383.5" r="11.1"/>
<path class="st2" d="M674.9,497.9c0-6.2,5-11.2,11.2-11.2s11.2,5,11.2,11.2s-5,11.2-11.2,11.2S674.9,504.1,674.9,497.9"/>
<circle class="st13" cx="686.1" cy="497.9" r="11.2"/>
<path class="st14" d="M675.1,442.9c0-6.2,5-11.2,11.2-11.2s11.2,5,11.2,11.2s-5,11.2-11.2,11.2S675.1,449,675.1,442.9"/>
<circle class="st15" cx="686.2" cy="442.9" r="11.2"/>
<path class="st2" d="M700.7,470.3c0-6.2,5-11.2,11.2-11.2s11.2,5,11.2,11.2s-5,11.2-11.2,11.2S700.7,476.5,700.7,470.3"/>
<circle class="st13" cx="711.9" cy="470.3" r="11.2"/>
<path class="st16" d="M674.9,470c0-6.2,5-11.2,11.2-11.2s11.2,5,11.2,11.2s-5,11.2-11.2,11.2S674.9,476.1,674.9,470"/>
<circle class="st17" cx="686.1" cy="470" r="11.2"/>
<path class="st16" d="M700.7,443.2c0-6.2,5-11.2,11.2-11.2s11.2,5,11.2,11.2s-5,11.2-11.2,11.2S700.7,449.4,700.7,443.2"/>
<circle class="st17" cx="711.9" cy="443.2" r="11.2"/>
<path class="st14" d="M621.5,443.1c0-6.2,5-11.2,11.2-11.2s11.2,5,11.2,11.2s-5,11.2-11.2,11.2S621.5,449.3,621.5,443.1"/>
<circle class="st15" cx="632.7" cy="443.1" r="11.2"/>
<path class="st16" d="M622.1,470.3c0-6.2,5-11.2,11.2-11.2s11.2,5,11.2,11.2s-5,11.2-11.2,11.2S622.1,476.5,622.1,470.3"/>
<circle class="st17" cx="633.3" cy="470.3" r="11.2"/>
<path class="st2" d="M700.7,498.1c0-6.2,5-11.2,11.2-11.2s11.2,5,11.2,11.2s-5,11.2-11.2,11.2S700.7,504.2,700.7,498.1"/>
<circle class="st13" cx="711.9" cy="498.1" r="11.2"/>
<path class="st18" d="M648.8,442.7c0-6.2,5-11.2,11.2-11.2s11.2,5,11.2,11.2s-5,11.2-11.2,11.2S648.8,448.9,648.8,442.7"/>
<circle class="st19" cx="659.9" cy="442.7" r="11.2"/>
<path class="st14" d="M596.1,469.8c0-6.1,5-11.1,11.2-11.1s11.2,5,11.2,11.1s-5,11.1-11.2,11.1S596.1,475.9,596.1,469.8"/>
<ellipse class="st15" cx="607.3" cy="469.8" rx="11.2" ry="11.1"/>
<path class="st2" d="M596.2,497.7c0-6.2,5-11.2,11.2-11.2s11.2,5,11.2,11.2s-5,11.2-11.2,11.2S596.2,503.9,596.2,497.7"/>
<circle class="st13" cx="607.4" cy="497.7" r="11.2"/>
<path class="st16" d="M621.5,497.7c0-6.2,5-11.2,11.2-11.2s11.2,5,11.2,11.2s-5,11.2-11.2,11.2S621.5,503.9,621.5,497.7"/>
<circle class="st17" cx="632.7" cy="497.7" r="11.2"/>
<path class="st18" d="M648.4,470.3c0-6.2,5-11.2,11.2-11.2s11.2,5,11.2,11.2s-5,11.2-11.2,11.2S648.4,476.5,648.4,470.3"/>
<circle class="st19" cx="659.6" cy="470.3" r="11.2"/>
<path class="st14" d="M648.1,497.9c0-6.2,5-11.2,11.2-11.2s11.2,5,11.2,11.2s-5,11.2-11.2,11.2S648.1,504.1,648.1,497.9"/>
<circle class="st15" cx="659.2" cy="497.9" r="11.2"/>
<path class="st25" d="M621.5,65.2c0-6.2,5-11.2,11.2-11.2s11.2,5,11.2,11.2s-5,11.2-11.2,11.2S621.5,71.4,621.5,65.2"/>
<circle class="st26" cx="632.7" cy="65.2" r="11.2"/>
<path class="st2" d="M647,76.4c0-6.2,5-11.2,11.1-11.2s11.1,5,11.1,11.2s-5,11.2-11.1,11.2S647,82.5,647,76.4"/>
<ellipse class="st27" cx="658.1" cy="76.4" rx="11.1" ry="11.2"/>
<path class="st28" d="M619.1,94.6c0-6.2,5-11.2,11.2-11.2s11.2,5,11.2,11.2s-5,11.2-11.2,11.2S619.1,100.8,619.1,94.6"/>
<circle class="st29" cx="630.3" cy="94.6" r="11.2"/>
<path class="st30" d="M658.1,49.5c0-6.2,5-11.2,11.1-11.2s11.1,5,11.1,11.2s-5,11.2-11.1,11.2S658.1,55.7,658.1,49.5"/>
<ellipse class="st31" cx="669.2" cy="49.5" rx="11.1" ry="11.2"/>
<path class="st25" d="M672.4,76.9c0-6.2,5-11.2,11.1-11.2s11.1,5,11.1,11.2s-5,11.2-11.1,11.2S672.4,83,672.4,76.9"/>
<ellipse class="st26" cx="683.5" cy="76.9" rx="11.1" ry="11.2"/>
<path class="st16" d="M647,103.3c0-6.2,5-11.2,11.1-11.2s11.1,5,11.1,11.2s-5,11.2-11.1,11.2S647,109.4,647,103.3"/>
<ellipse class="st32" cx="658.1" cy="103.3" rx="11.1" ry="11.2"/>
<path class="st14" d="M595.3,77.7c0-6.2,5-11.2,11.2-11.2s11.2,5,11.2,11.2s-5,11.2-11.2,11.2S595.3,83.9,595.3,77.7"/>
<circle class="st15" cx="606.4" cy="77.7" r="11.2"/>
<path class="st33" d="M601,116.3c0-6.2,5-11.2,11.2-11.2s11.2,5,11.2,11.2s-5,11.2-11.2,11.2S601,122.5,601,116.3"/>
<circle class="st34" cx="612.2" cy="116.3" r="11.2"/>
<path class="st20" d="M675.4,104.2c0-6.2,5-11.2,11.2-11.2s11.2,5,11.2,11.2s-5,11.2-11.2,11.2S675.4,110.4,675.4,104.2"/>
<circle class="st21" cx="686.6" cy="104.2" r="11.2"/>
<path class="st22" d="M629.6,123.9c0-6.2,5-11.2,11.2-11.2s11.2,5,11.2,11.2c0,6.2-5,11.2-11.2,11.2S629.6,130.1,629.6,123.9"/>
<circle class="st23" cx="640.7" cy="123.9" r="11.2"/>
<path class="st20" d="M580.9,48.9c0-6.2,5-11.2,11.2-11.2s11.2,5,11.2,11.2s-5,11.2-11.2,11.2S580.9,55.1,580.9,48.9"/>
<circle class="st21" cx="592" cy="48.9" r="11.2"/>
<path class="st22" d="M566.9,73.3c0-6.2,5-11.2,11.1-11.2s11.1,5,11.1,11.2s-5,11.2-11.1,11.2S566.9,79.4,566.9,73.3"/>
<ellipse class="st23" cx="578" cy="73.3" rx="11.1" ry="11.2"/>
<path class="st35" d="M575,105.8c0-6.2,5-11.2,11.2-11.2s11.2,5,11.2,11.2s-5,11.2-11.2,11.2S575,111.9,575,105.8"/>
<circle class="st36" cx="586.1" cy="105.8" r="11.2"/>
<path class="st14" d="M702.4,87.5c0-6.2,5-11.2,11.2-11.2s11.2,5,11.2,11.2s-5,11.2-11.2,11.2S702.4,93.7,702.4,87.5"/>
<circle class="st15" cx="713.6" cy="87.5" r="11.2"/>
<path class="st37" d="M634,40.3c0-6.2,5-11.2,11.2-11.2s11.2,5,11.2,11.2s-5,11.2-11.2,11.2S634,46.4,634,40.3"/>
<circle class="st38" cx="645.2" cy="40.3" r="11.2"/>
<path class="st20" d="M691.5,60c0-6.1,5-11.1,11.1-11.1s11.1,5,11.1,11.1s-5,11.1-11.1,11.1S691.5,66.1,691.5,60"/>
<circle class="st21" cx="702.6" cy="60" r="11.1"/>
<path class="st39" d="M708.5,112.7c0-6.2,5-11.2,11.2-11.2s11.2,5,11.2,11.2s-5,11.2-11.2,11.2S708.5,118.9,708.5,112.7"/>
<circle class="st40" cx="719.7" cy="112.7" r="11.2"/>
<path class="st16" d="M683.9,131.5c0-6.2,5-11.2,11.2-11.2s11.2,5,11.2,11.2s-5,11.2-11.2,11.2S683.9,137.6,683.9,131.5"/>
<circle class="st17" cx="695.1" cy="131.5" r="11.2"/>
<path class="st18" d="M656.3,135.1c0-6.2,5-11.2,11.1-11.2s11.1,5,11.1,11.2s-5,11.2-11.1,11.2S656.3,141.2,656.3,135.1"/>
<ellipse class="st19" cx="667.4" cy="135.1" rx="11.1" ry="11.2"/>
<path class="st18" d="M607.5,41.3c0-6.2,5-11.2,11.2-11.2s11.2,5,11.2,11.2s-5,11.2-11.2,11.2S607.5,47.5,607.5,41.3"/>
<circle class="st19" cx="618.7" cy="41.3" r="11.2"/>
<g class="st5">
	<path class="st24" d="M587.5,172.4l-3.4-14h1.8l1.5,6.7l1.2,5.2h0l1.3-5.2l1.8-6.7h1.9l1.7,6.7l1.3,5.2h0.1l1.2-5.2l1.6-6.7h1.7
		l-3.6,14h-1.9l-1.8-7l-1.3-5.1h0l-1.3,5.1l-1.9,7H587.5z"/>
	<path class="st24" d="M602.2,167.2c0-3.3,1.8-5.4,4.6-5.4c2.8,0,4.5,2.1,4.5,5v0.8h-7.4v0.5c0,1.8,1.1,3.1,3.1,3.1
		c1.3,0,2.3-0.6,2.8-1.8l1.1,0.8c-0.7,1.4-2.1,2.4-4.1,2.4C604.1,172.6,602.2,170.5,602.2,167.2z M603.9,166.3v0.1h5.7v-0.2
		c0-1.8-1.1-3-2.7-3C605.1,163.2,603.9,164.5,603.9,166.3z"/>
	<path class="st24" d="M613.8,158.7v-0.3c0-0.5,0.3-0.9,1-0.9c0.7,0,1,0.4,1,0.9v0.3c0,0.5-0.3,0.9-1,0.9
		C614.1,159.6,613.8,159.3,613.8,158.7z M614,162.1h1.6v10.3H614V162.1z"/>
	<path class="st24" d="M622.7,176.6c-3.2,0-4.5-0.9-4.5-2.5c0-1.1,0.6-1.7,1.6-2v-0.2c-0.6-0.3-0.9-0.7-0.9-1.4c0-1,0.7-1.5,1.8-1.8
		v-0.1c-1.2-0.6-1.9-1.7-1.9-3.2c0-2.1,1.5-3.6,3.9-3.6c0.7,0,1.4,0.1,2,0.4V162c0-0.8,0.3-1.4,1.2-1.4h1.5v1.4h-2v0.7
		c0.7,0.6,1.2,1.6,1.2,2.7c0,2.1-1.5,3.6-3.9,3.6c-0.3,0-0.7,0-1-0.1c-0.7,0.2-1.4,0.5-1.4,1.2c0,0.6,0.6,0.8,1.6,0.8h2.2
		c2.6,0,3.7,1,3.7,2.7C627.7,175.7,626,176.6,622.7,176.6z M624.1,172.3h-3.4c-0.7,0.3-1,0.8-1,1.4c0,0.9,0.6,1.6,2.2,1.6h1.5
		c1.8,0,2.8-0.6,2.8-1.7C626.2,172.8,625.7,172.3,624.1,172.3z M624.8,165.7v-0.6c0-1.4-0.9-2-2.2-2s-2.2,0.6-2.2,2v0.6
		c0,1.4,0.9,2,2.2,2S624.8,167,624.8,165.7z"/>
	<path class="st24" d="M629.6,157.6h1.6v6.2h0.1c0.5-1.2,1.4-1.9,2.9-1.9c2.1,0,3.5,1.4,3.5,3.9v6.6H636V166c0-1.8-0.8-2.8-2.3-2.8
		c-1.3,0-2.5,0.6-2.5,2v7.2h-1.6V157.6z"/>
	<path class="st24" d="M643.2,172.4c-1.1,0-1.7-0.7-1.7-1.7v-7.2h-1.7v-1.4h1c0.7,0,0.9-0.2,0.9-0.9v-1.9h1.4v2.9h2.3v1.4h-2.3v7.5
		h2.1v1.4H643.2z"/>
	<path class="st24" d="M647.1,167.2c0-3.3,1.8-5.4,4.6-5.4c2.8,0,4.5,2.1,4.5,5v0.8h-7.4v0.5c0,1.8,1.1,3.1,3.1,3.1
		c1.3,0,2.3-0.6,2.8-1.8l1.1,0.8c-0.7,1.4-2.1,2.4-4.1,2.4C649,172.6,647.1,170.5,647.1,167.2z M648.8,166.3v0.1h5.7v-0.2
		c0-1.8-1.1-3-2.7-3C650.1,163.2,648.8,164.5,648.8,166.3z"/>
	<path class="st24" d="M665.5,170.7L665.5,170.7c-0.7,1.3-1.7,1.9-3.1,1.9c-2.6,0-4.2-2.1-4.2-5.4s1.6-5.4,4.2-5.4
		c1.4,0,2.5,0.6,3,1.9h0.1v-6.2h1.6v14.8h-1.6V170.7z M665.5,169.1v-3.8c0-1.1-1.2-2-2.7-2c-1.8,0-2.9,1.2-2.9,3.1v1.8
		c0,1.8,1.1,3.1,2.9,3.1C664.3,171.2,665.5,170.4,665.5,169.1z"/>
	<path class="st24" d="M681.9,170.7L681.9,170.7c-0.7,1.3-1.7,1.9-3.1,1.9c-2.6,0-4.2-2.1-4.2-5.4s1.6-5.4,4.2-5.4
		c1.4,0,2.5,0.6,3,1.9h0.1v-6.2h1.6v14.8h-1.6V170.7z M681.9,169.1v-3.8c0-1.1-1.2-2-2.7-2c-1.8,0-2.9,1.2-2.9,3.1v1.8
		c0,1.8,1.1,3.1,2.9,3.1C680.7,171.2,681.9,170.4,681.9,169.1z"/>
	<path class="st24" d="M694.4,172.4c-1.2,0-1.7-0.7-1.8-1.7h-0.1c-0.4,1.3-1.5,1.9-3,1.9c-2.2,0-3.5-1.2-3.5-3.1c0-1.9,1.4-3,4.4-3
		h2v-1c0-1.5-0.8-2.3-2.4-2.3c-1.2,0-2.1,0.6-2.6,1.5l-1-0.9c0.6-1.1,1.8-2,3.7-2c2.5,0,4,1.3,4,3.5v5.7h1.2v1.4H694.4z
		 M692.5,169.4v-1.7h-2.1c-1.8,0-2.6,0.6-2.6,1.6v0.4c0,1,0.8,1.6,2,1.6C691.4,171.3,692.5,170.5,692.5,169.4z"/>
	<path class="st24" d="M699.9,172.4c-1.1,0-1.7-0.7-1.7-1.7v-7.2h-1.7v-1.4h1c0.7,0,0.9-0.2,0.9-0.9v-1.9h1.4v2.9h2.3v1.4h-2.3v7.5
		h2.1v1.4H699.9z"/>
	<path class="st24" d="M712.1,172.4c-1.2,0-1.7-0.7-1.8-1.7h-0.1c-0.4,1.3-1.5,1.9-3,1.9c-2.2,0-3.5-1.2-3.5-3.1c0-1.9,1.4-3,4.4-3
		h2v-1c0-1.5-0.8-2.3-2.4-2.3c-1.2,0-2.1,0.6-2.6,1.5l-1-0.9c0.6-1.1,1.8-2,3.7-2c2.5,0,4,1.3,4,3.5v5.7h1.2v1.4H712.1z
		 M710.3,169.4v-1.7h-2.1c-1.8,0-2.6,0.6-2.6,1.6v0.4c0,1,0.8,1.6,2,1.6C709.1,171.3,710.3,170.5,710.3,169.4z"/>
</g>
<line class="st41" x1="116.8" y1="184.1" x2="116.8" y2="226.3"/>
<polygon class="st18" points="120.2,225.1 116.8,232 113.4,225.1 "/>
<line class="st41" x1="116.8" y1="275.1" x2="116.8" y2="317.2"/>
<polygon class="st18" points="120.2,316.1 116.8,322.9 113.4,316.1 "/>
<line class="st41" x1="329.5" y1="184.1" x2="329.5" y2="226.3"/>
<polygon class="st18" points="326,225.1 329.5,232 332.9,225.1 "/>
<line class="st41" x1="329.5" y1="275.1" x2="329.5" y2="317.3"/>
<polygon class="st18" points="332.9,316.2 329.5,323 326,316.2 "/>
<line class="st41" x1="648.9" y1="184.1" x2="648.9" y2="226.3"/>
<polygon class="st18" points="645.5,225.1 648.9,232 652.3,225.1 "/>
<line class="st41" x1="648.9" y1="275.1" x2="648.9" y2="317.2"/>
<polygon class="st18" points="645.5,316.1 648.9,322.9 652.3,316.1 "/>
<g>
	<polygon class="st2" points="481.3,102.5 481.3,340.9 483.5,340.9 483.5,104.7 549.9,104.7 549.9,102.5 	"/>
	<polygon class="st2" points="481.3,406.3 481.3,469.4 409.1,469.4 409.1,471.6 483.5,471.6 483.5,406.3 	"/>
</g>
<g class="st5">
	<path class="st2" d="M468.1,374.7c-0.8,0-1.5-0.3-2-0.9s-0.8-1.3-0.8-2.2s0.3-1.6,0.8-2.2s1.2-0.9,2-0.9s1.5,0.3,2,0.9
		s0.8,1.3,0.8,2.2s-0.3,1.6-0.8,2.2S468.9,374.7,468.1,374.7z M482.3,374.7c-0.8,0-1.5-0.3-2-0.9c-0.5-0.6-0.8-1.3-0.8-2.2
		s0.3-1.6,0.8-2.2c0.5-0.6,1.2-0.9,2-0.9s1.5,0.3,2,0.9s0.8,1.3,0.8,2.2s-0.3,1.6-0.8,2.2S483.1,374.7,482.3,374.7z M496.5,374.7
		c-0.8,0-1.5-0.3-2-0.9s-0.8-1.3-0.8-2.2s0.3-1.6,0.8-2.2s1.2-0.9,2-0.9s1.5,0.3,2,0.9s0.8,1.3,0.8,2.2s-0.3,1.6-0.8,2.2
		S497.3,374.7,496.5,374.7z"/>
</g>
<g>
	<polygon class="st33" points="834,248.9 843.5,248.9 843.5,246.2 837,246.2 837,243.2 842.6,243.2 842.6,240.5 837,240.5 
		837,237.7 843.5,237.7 843.5,234.9 834,234.9 	"/>
	<path class="st33" d="M852,238.2c-1.7,0-2.5,0.9-2.9,2h-0.1v-1.8h-3v10.5h3v-6.8c0-1,0.9-1.5,1.9-1.5c1.1,0,1.5,0.7,1.5,2v6.4h3
		v-6.6C855.3,239.7,854.1,238.2,852,238.2z"/>
	<path class="st33" d="M866,245.7c0-1.8-1.2-2.9-3.5-3.2l-1.2-0.2c-0.9-0.1-1.1-0.4-1.1-1c0-0.5,0.4-0.9,1.4-0.9
		c0.9,0,1.8,0.4,2.4,1.1l1.7-1.7c-1.1-1-2.1-1.6-4.3-1.6c-2.5,0-4.1,1.4-4.1,3.4c0,1.9,1.2,2.9,3.5,3.2l1.1,0.1
		c0.7,0.1,1.1,0.4,1.1,0.9c0,0.6-0.4,1-1.6,1c-1.1,0-2-0.5-2.8-1.3l-1.7,1.8c1.1,1.2,2.4,1.9,4.4,1.9
		C864.2,249.2,866,247.7,866,245.7z"/>
	<path class="st33" d="M872.4,249.2c1.9,0,3.5-0.7,4.4-1.7l-1.5-1.8c-0.7,0.7-1.3,1.3-2.6,1.3c-1.6,0-2.3-0.9-2.3-2.3v-0.2h6.8v-0.9
		c0-2.8-1.4-5.4-4.9-5.4c-3.2,0-4.9,2.2-4.9,5.5C867.4,247,869.2,249.2,872.4,249.2z M870.4,242.5c0-1.3,0.7-2.2,1.9-2.2
		s1.8,0.9,1.8,2.1v0.2h-3.7V242.5z"/>
	<path class="st33" d="M882.2,242.1c0-1,0.9-1.5,1.7-1.5c1,0,1.4,0.6,1.4,2v6.4h3v-6.8c0-1,0.9-1.5,1.7-1.5c1,0,1.4,0.6,1.4,2v6.4h3
		v-6.6c0-2.6-1.1-4.2-3.1-4.2c-1.6,0-2.8,0.9-3.2,2.1h-0.1c-0.5-1.4-1.5-2.1-2.9-2.1c-1.6,0-2.4,0.9-2.8,2h-0.1v-1.8h-3v10.5h3
		V242.1z"/>
	<path class="st33" d="M900.2,247.2L900.2,247.2c0.4,1.1,1.6,2,2.9,2c2.7,0,4-1.9,4-5.5c0-3.6-1.4-5.5-4-5.5c-1.4,0-2.5,0.8-2.8,2
		h-0.1v-6.1h-3v14.8h3V247.2z M900.2,242.1c0-1,0.8-1.5,1.9-1.5c1.1,0,1.9,0.9,1.9,2.2v1.8c0,1.3-0.8,2.2-1.9,2.2
		c-1.1,0-1.9-0.6-1.9-1.5V242.1z"/>
	<path class="st33" d="M912.3,248.9h1.3v-2.3h-1.3v-12.5h-3V246C909.4,247.9,910.3,248.9,912.3,248.9z"/>
	<path class="st33" d="M919.8,249.2c1.9,0,3.5-0.7,4.4-1.7l-1.5-1.8c-0.7,0.7-1.3,1.3-2.6,1.3c-1.6,0-2.3-0.9-2.3-2.3v-0.2h6.8v-0.9
		c0-2.8-1.4-5.4-4.9-5.4c-3.2,0-4.9,2.2-4.9,5.5C914.8,247,916.6,249.2,919.8,249.2z M917.9,242.5c0-1.3,0.7-2.2,1.9-2.2
		c1.2,0,1.8,0.9,1.8,2.1v0.2h-3.7V242.5z"/>
	<path class="st33" d="M849.8,270.5c-1.8,0-3-1.2-3-3.4v-2.2c0-2.2,1.2-3.4,3-3.4c1.5,0,2.2,0.8,2.6,1.9l2.6-1.4
		c-1-2.2-2.7-3.3-5.2-3.3c-3.8,0-6.2,2.6-6.2,7.3c0,4.7,2.4,7.1,6.2,7.1c2.6,0,4.2-1.2,5.3-3.3l-2.5-1.4
		C852.2,269.5,851.3,270.5,849.8,270.5z"/>
	<path class="st33" d="M860,258.1h-3v11.9c0,1.9,0.9,2.9,2.9,2.9h1.3v-2.3H860V258.1z"/>
	<path class="st33" d="M871.6,266c0-2.5-1.5-3.8-4.5-3.8c-2.2,0-3.4,0.8-4.2,2l1.8,1.6c0.5-0.6,1.1-1.2,2.3-1.2
		c1.2,0,1.7,0.6,1.7,1.7v0.7h-1.7c-2.8,0-4.5,1.1-4.5,3.3c0,1.8,1.2,3.1,3.3,3.1c1.6,0,2.8-0.7,3.1-2.1h0.1c0.2,1.1,0.9,1.8,2,1.8
		h1.6v-2.3h-1V266z M868.6,269.8c0,1-0.8,1.4-1.8,1.4c-0.9,0-1.4-0.4-1.4-1.1v-0.3c0-0.8,0.6-1.2,1.7-1.2h1.4V269.8z"/>
	<path class="st33" d="M879.1,266.5l-1.2-0.2c-0.9-0.1-1.1-0.4-1.1-1c0-0.5,0.4-0.9,1.4-0.9c0.9,0,1.8,0.4,2.4,1.1l1.7-1.7
		c-1.1-1-2.1-1.6-4.3-1.6c-2.5,0-4.1,1.4-4.1,3.4c0,1.9,1.2,2.9,3.5,3.2l1.1,0.1c0.7,0.1,1.1,0.4,1.1,0.9c0,0.6-0.4,1-1.6,1
		c-1.1,0-2-0.5-2.8-1.3l-1.7,1.8c1.1,1.2,2.4,1.9,4.4,1.9c2.7,0,4.5-1.5,4.5-3.5C882.6,267.9,881.4,266.8,879.1,266.5z"/>
	<path class="st33" d="M889.1,266.5l-1.2-0.2c-0.9-0.1-1.1-0.4-1.1-1c0-0.5,0.4-0.9,1.4-0.9c0.9,0,1.8,0.4,2.4,1.1l1.7-1.7
		c-1.1-1-2.1-1.6-4.3-1.6c-2.5,0-4.1,1.4-4.1,3.4c0,1.9,1.2,2.9,3.5,3.2l1.1,0.1c0.7,0.1,1.1,0.4,1.1,0.9c0,0.6-0.4,1-1.6,1
		c-1.1,0-2-0.5-2.8-1.3l-1.7,1.8c1.1,1.2,2.4,1.9,4.4,1.9c2.7,0,4.5-1.5,4.5-3.5C892.6,267.9,891.4,266.8,889.1,266.5z"/>
	<path class="st33" d="M896.1,257.9c-1.2,0-1.7,0.6-1.7,1.5v0.4c0,0.8,0.5,1.5,1.7,1.5c1.2,0,1.7-0.6,1.7-1.5v-0.4
		C897.8,258.6,897.3,257.9,896.1,257.9z"/>
	<rect x="894.6" y="262.4" class="st33" width="3" height="10.5"/>
	<path class="st33" d="M900.8,261.2v1.2h-1.5v2.3h1.5v8.2h3v-8.2h2.1v-2.3h-2.1v-2h2.1v-2.3H904
		C901.9,258.1,900.8,259.2,900.8,261.2z"/>
	<path class="st33" d="M911.7,262.2c-3.2,0-4.9,2.2-4.9,5.5c0,3.4,1.8,5.5,5,5.5c1.9,0,3.5-0.7,4.4-1.7l-1.5-1.8
		c-0.7,0.7-1.3,1.3-2.6,1.3c-1.6,0-2.3-0.9-2.3-2.3v-0.2h6.8v-0.9C916.6,264.7,915.2,262.2,911.7,262.2z M913.6,266.7h-3.7v-0.2
		c0-1.3,0.7-2.2,1.9-2.2c1.2,0,1.8,0.9,1.8,2.1V266.7z"/>
	<path class="st33" d="M924.5,262.4c-1.6,0-2.4,1.1-2.7,2.3h-0.1v-2.3h-3v10.5h3v-6.1c0-1.2,0.8-1.6,2.6-1.6h0.7v-2.8H924.5z"/>
</g>
</svg>
