<?xml version="1.0" encoding="UTF-8" standalone="no"?>
<!-- Generator: Adobe Illustrator 21.1.0, SVG Export Plug-In . SVG Version: 6.00 Build 0)  -->

<svg
   xmlns:dc="http://purl.org/dc/elements/1.1/"
   xmlns:cc="http://creativecommons.org/ns#"
   xmlns:rdf="http://www.w3.org/1999/02/22-rdf-syntax-ns#"
   xmlns:svg="http://www.w3.org/2000/svg"
   xmlns="http://www.w3.org/2000/svg"
   xmlns:sodipodi="http://sodipodi.sourceforge.net/DTD/sodipodi-0.dtd"
   xmlns:inkscape="http://www.inkscape.org/namespaces/inkscape"
   version="1.1"
   id="Layer_1"
   x="0px"
   y="0px"
   viewBox="0 0 886.8 499.9"
   style="enable-background:new 0 0 886.8 499.9;"
   xml:space="preserve"
   sodipodi:docname="bagging.svg"
   inkscape:version="0.92.4 (5da689c313, 2019-01-14)"><metadata
   id="metadata467"><rdf:RDF><cc:Work
       rdf:about=""><dc:format>image/svg+xml</dc:format><dc:type
         rdf:resource="http://purl.org/dc/dcmitype/StillImage" /></cc:Work></rdf:RDF></metadata><defs
   id="defs465" /><sodipodi:namedview
   pagecolor="#ffffff"
   bordercolor="#666666"
   borderopacity="1"
   objecttolerance="10"
   gridtolerance="10"
   guidetolerance="10"
   inkscape:pageopacity="0"
   inkscape:pageshadow="2"
   inkscape:window-width="1920"
   inkscape:window-height="1116"
   id="namedview463"
   showgrid="false"
   inkscape:zoom="2"
   inkscape:cx="557.47093"
   inkscape:cy="271.93019"
   inkscape:window-x="1592"
   inkscape:window-y="-8"
   inkscape:window-maximized="1"
   inkscape:current-layer="Layer_1" />
<style
   type="text/css"
   id="style2">
	.st0{fill:#FFFFFF;}
	.st1{fill:none;stroke:#9B59B6;stroke-width:2.28;stroke-miterlimit:8;}
	.st2{fill:#9B59B6;}
	.st3{fill:none;stroke:#713F85;stroke-width:2.28;stroke-miterlimit:8;}
	.st4{fill:#F1C40F;}
	.st5{fill:none;stroke:#B18F08;stroke-width:2.28;stroke-miterlimit:8;}
	.st6{fill:#3498DB;}
	.st7{fill:none;stroke:#236EA1;stroke-width:2.28;stroke-miterlimit:8;}
	.st8{fill:#E67E22;}
	.st9{fill:none;stroke:#A95B16;stroke-width:2.28;stroke-miterlimit:8;}
	.st10{fill:#2C3E50;}
	.st11{fill:url(#SVGID_1_);}
	.st12{fill:none;stroke:#2ECC71;stroke-width:0.48;stroke-miterlimit:8;}
	.st13{fill:url(#SVGID_2_);}
	.st14{fill:url(#SVGID_3_);}
	.st15{fill:url(#SVGID_4_);}
	.st16{fill:none;stroke:#3498DB;stroke-width:0.48;stroke-miterlimit:8;}
	.st17{fill:none;stroke:#2ECC71;stroke-width:2.28;stroke-miterlimit:8;}
	.st18{fill:#2ECC71;}
	.st19{fill:#111111;}
</style>
<title
   id="title4">bagging</title>
<rect
   x="495.2"
   y="200.6"
   class="st0"
   width="184.3"
   height="199.8"
   id="rect6" />
<rect
   x="495.2"
   y="200.6"
   class="st1"
   width="184.3"
   height="199.8"
   id="rect8" />
<rect
   x="198.8"
   y="200.6"
   class="st0"
   width="184.2"
   height="199.8"
   id="rect10" />
<rect
   x="198.8"
   y="200.6"
   class="st1"
   width="184.2"
   height="199.8"
   id="rect12" />
<rect
   x="1.1"
   y="200.6"
   class="st0"
   width="184.2"
   height="199.8"
   id="rect14" />
<rect
   x="1.1"
   y="200.6"
   class="st1"
   width="184.2"
   height="199.8"
   id="rect16" />
<path
   class="st2"
   d="M46.3,228.4c0-7.3,5.9-13.1,13.1-13.1s13.1,5.9,13.1,13.1s-5.9,13.1-13.1,13.1l0,0  C52.1,241.5,46.3,235.6,46.3,228.4"
   id="path18" />
<circle
   class="st3"
   cx="59.4"
   cy="228.4"
   r="13.1"
   id="circle20" />
<path
   class="st4"
   d="M13,228.8c0-7.2,5.9-13.1,13.1-13c7.2,0,13.1,5.9,13,13.1c0,7.2-5.9,13-13.1,13C18.9,242,13,236.1,13,228.8  L13,228.8"
   id="path22" />
<ellipse
   class="st5"
   cx="26.1"
   cy="228.8"
   rx="13.1"
   ry="13.1"
   id="ellipse24" />
<path
   class="st4"
   d="M112.9,228.4c0-7.3,5.9-13.1,13.1-13.1c7.3,0,13.1,5.9,13.1,13.1s-5.9,13.1-13.1,13.1l0,0  C118.7,241.5,112.9,235.6,112.9,228.4"
   id="path26" />
<circle
   class="st5"
   cx="126"
   cy="228.4"
   r="13.1"
   id="circle28" />
<path
   class="st4"
   d="M79.6,228.8c0-7.2,5.9-13.1,13.1-13c7.2,0,13.1,5.9,13,13.1c0,7.2-5.9,13-13.1,13  C85.5,242,79.6,236.1,79.6,228.8L79.6,228.8"
   id="path30" />
<ellipse
   class="st5"
   cx="92.7"
   cy="228.8"
   rx="13.1"
   ry="13.1"
   id="ellipse32" />
<path
   class="st6"
   d="M146.1,228.8c0-7.3,5.9-13.1,13.1-13.1s13.1,5.9,13.1,13.1s-5.9,13.1-13.1,13.1l0,0  C152,242,146.1,236.1,146.1,228.8"
   id="path34" />
<circle
   class="st7"
   cx="159.2"
   cy="228.8"
   r="13.1"
   id="circle36" />
<path
   class="st8"
   d="M46.3,261.5c0-7.3,5.8-13.2,13.1-13.2s13.2,5.8,13.2,13.1s-5.8,13.2-13.1,13.2c0,0,0,0-0.1,0  C52.2,274.6,46.3,268.8,46.3,261.5L46.3,261.5"
   id="path38" />
<ellipse
   class="st9"
   cx="59.4"
   cy="261.5"
   rx="13.1"
   ry="13.1"
   id="ellipse40" />
<path
   class="st2"
   d="M13,262.1c0-7.2,5.9-13.1,13.1-13s13.1,5.9,13,13.1c0,7.2-5.9,13-13.1,13C18.9,275.2,13,269.3,13,262.1  L13,262.1"
   id="path42" />
<ellipse
   class="st3"
   cx="26.1"
   cy="262.1"
   rx="13.1"
   ry="13.1"
   id="ellipse44" />
<path
   class="st8"
   d="M112.9,261.5c0-7.3,5.8-13.2,13.1-13.2c7.3,0,13.2,5.8,13.2,13.1s-5.8,13.2-13.1,13.2c0,0,0,0-0.1,0  C118.8,274.6,112.9,268.8,112.9,261.5L112.9,261.5"
   id="path46" />
<ellipse
   class="st9"
   cx="126"
   cy="261.5"
   rx="13.1"
   ry="13.1"
   id="ellipse48" />
<path
   class="st4"
   d="M79.6,262.1c0-7.2,5.9-13.1,13.1-13c7.2,0,13.1,5.9,13,13.1c0,7.2-5.9,13-13.1,13  C85.5,275.2,79.6,269.3,79.6,262.1L79.6,262.1"
   id="path50" />
<ellipse
   class="st5"
   cx="92.7"
   cy="262.1"
   rx="13.1"
   ry="13.1"
   id="ellipse52" />
<path
   class="st4"
   d="M146.1,262.1c0-7.3,5.9-13.1,13.1-13.1s13.1,5.9,13.1,13.1s-5.9,13.1-13.1,13.1S146.1,269.3,146.1,262.1  L146.1,262.1"
   id="path54" />
<circle
   class="st5"
   cx="159.2"
   cy="262.1"
   r="13.1"
   id="circle56" />
<path
   class="st2"
   d="M244.6,228.4c0-7.3,5.9-13.1,13.1-13.1c7.3,0,13.1,5.9,13.1,13.1s-5.9,13.1-13.1,13.1S244.6,235.6,244.6,228.4  L244.6,228.4"
   id="path58" />
<circle
   class="st3"
   cx="257.8"
   cy="228.4"
   r="13.1"
   id="circle60" />
<path
   class="st4"
   d="M211.4,228.8c0-7.3,5.9-13.1,13.1-13.1c7.3,0,13.1,5.9,13.1,13.1s-5.9,13.1-13.1,13.1S211.4,236.1,211.4,228.8  L211.4,228.8"
   id="path62" />
<circle
   class="st5"
   cx="224.5"
   cy="228.8"
   r="13.1"
   id="circle64" />
<path
   class="st2"
   d="M311.2,228.4c0-7.3,5.9-13.1,13.1-13.1c7.3,0,13.1,5.9,13.1,13.1s-5.9,13.1-13.1,13.1l0,0  C317.1,241.5,311.2,235.6,311.2,228.4L311.2,228.4"
   id="path66" />
<circle
   class="st3"
   cx="324.4"
   cy="228.4"
   r="13.1"
   id="circle68" />
<path
   class="st2"
   d="M278,228.8c0-7.2,5.9-13.1,13.1-13c7.2,0,13.1,5.9,13,13.1c0,7.2-5.9,13-13.1,13C283.8,242,278,236.1,278,228.8  L278,228.8"
   id="path70" />
<ellipse
   class="st3"
   cx="291.1"
   cy="228.8"
   rx="13.1"
   ry="13.1"
   id="ellipse72" />
<path
   class="st6"
   d="M344.6,228.8c0-7.2,5.9-13.1,13.1-13c7.2,0,13.1,5.9,13,13.1c0,7.2-5.9,13-13.1,13  C350.4,242,344.6,236.1,344.6,228.8L344.6,228.8"
   id="path74" />
<ellipse
   class="st7"
   cx="357.7"
   cy="228.8"
   rx="13.1"
   ry="13.1"
   id="ellipse76" />
<path
   class="st2"
   d="M244.6,261.5c0-7.3,5.8-13.2,13.1-13.2c7.3,0,13.2,5.8,13.2,13.1s-5.8,13.2-13.1,13.2c0,0,0,0-0.1,0  C250.5,274.6,244.6,268.8,244.6,261.5L244.6,261.5"
   id="path78" />
<ellipse
   class="st3"
   cx="257.8"
   cy="261.5"
   rx="13.1"
   ry="13.1"
   id="ellipse80" />
<path
   class="st8"
   d="M211.4,262.1c0-7.3,5.9-13.1,13.1-13.1s13.1,5.9,13.1,13.1s-5.9,13.1-13.1,13.1S211.4,269.3,211.4,262.1  L211.4,262.1"
   id="path82" />
<circle
   class="st9"
   cx="224.5"
   cy="262.1"
   r="13.1"
   id="circle84" />
<path
   class="st8"
   d="M311.2,261.5c0-7.3,5.8-13.2,13.1-13.2c7.3,0,13.2,5.8,13.2,13.1s-5.8,13.2-13.1,13.2h-0.1  C317.1,274.6,311.2,268.8,311.2,261.5"
   id="path86" />
<ellipse
   class="st9"
   cx="324.4"
   cy="261.5"
   rx="13.1"
   ry="13.1"
   id="ellipse88" />
<path
   class="st2"
   d="M278,262.1c0-7.2,5.9-13.1,13.1-13c7.2,0,13.1,5.9,13,13.1c0,7.2-5.9,13-13.1,13S278,269.3,278,262.1L278,262.1  "
   id="path90" />
<ellipse
   class="st3"
   cx="291.1"
   cy="262.1"
   rx="13.1"
   ry="13.1"
   id="ellipse92" />
<path
   class="st6"
   d="M344.6,262.1c0-7.2,5.9-13.1,13.1-13c7.2,0,13.1,5.9,13,13.1c0,7.2-5.9,13-13.1,13S344.6,269.3,344.6,262.1  L344.6,262.1"
   id="path94" />
<ellipse
   class="st7"
   cx="357.7"
   cy="262.1"
   rx="13.1"
   ry="13.1"
   id="ellipse96" />
<path
   class="st2"
   d="M540.7,228.8c0-7.3,5.9-13.1,13.1-13.1s13.1,5.9,13.1,13.1s-5.9,13.1-13.1,13.1S540.7,236.1,540.7,228.8  L540.7,228.8"
   id="path98" />
<circle
   class="st3"
   cx="553.8"
   cy="228.8"
   r="13.1"
   id="circle100" />
<path
   class="st6"
   d="M507.4,229.4c0-7.3,5.9-13.1,13.1-13.1s13.1,5.9,13.1,13.1s-5.9,13.1-13.1,13.1S507.4,236.7,507.4,229.4  L507.4,229.4"
   id="path102" />
<circle
   class="st7"
   cx="520.6"
   cy="229.4"
   r="13.1"
   id="circle104" />
<path
   class="st6"
   d="M607.3,228.8c0-7.3,5.9-13.1,13.1-13.1s13.1,5.9,13.1,13.1s-5.9,13.1-13.1,13.1S607.3,236.1,607.3,228.8  L607.3,228.8"
   id="path106" />
<circle
   class="st7"
   cx="620.4"
   cy="228.8"
   r="13.1"
   id="circle108" />
<path
   class="st6"
   d="M574,229.4c0-7.3,5.9-13.1,13.1-13.1s13.1,5.9,13.1,13.1s-5.9,13.1-13.1,13.1S574,236.7,574,229.4L574,229.4"
   id="path110" />
<circle
   class="st7"
   cx="587.2"
   cy="229.4"
   r="13.1"
   id="circle112" />
<path
   class="st6"
   d="M640.6,229.4c0-7.2,5.9-13.1,13.1-13c7.2,0,13.1,5.9,13,13.1c0,7.2-5.9,13-13.1,13  C646.5,242.6,640.6,236.7,640.6,229.4L640.6,229.4"
   id="path114" />
<ellipse
   class="st7"
   cx="653.7"
   cy="229.4"
   rx="13.1"
   ry="13.1"
   id="ellipse116" />
<path
   class="st6"
   d="M540.7,262.1c0-7.3,5.9-13.1,13.1-13.1s13.1,5.9,13.1,13.1c0,7.3-5.9,13.1-13.1,13.1S540.7,269.3,540.7,262.1  L540.7,262.1"
   id="path118" />
<circle
   class="st7"
   cx="553.8"
   cy="262.1"
   r="13.1"
   id="circle120" />
<path
   class="st6"
   d="M507.4,262.6c0-7.3,5.9-13.1,13.1-13.1s13.1,5.9,13.1,13.1c0,7.3-5.9,13.1-13.1,13.1S507.4,269.8,507.4,262.6  L507.4,262.6"
   id="path122" />
<circle
   class="st7"
   cx="520.6"
   cy="262.6"
   r="13.1"
   id="circle124" />
<path
   class="st6"
   d="M607.3,262.1c0-7.3,5.9-13.1,13.1-13.1s13.1,5.9,13.1,13.1c0,7.3-5.9,13.1-13.1,13.1S607.3,269.3,607.3,262.1  L607.3,262.1"
   id="path126" />
<circle
   class="st7"
   cx="620.4"
   cy="262.1"
   r="13.1"
   id="circle128" />
<path
   class="st2"
   d="M574,262.6c0-7.3,5.9-13.1,13.1-13.1s13.1,5.9,13.1,13.1c0,7.3-5.9,13.1-13.1,13.1S574,269.8,574,262.6  L574,262.6"
   id="path130" />
<circle
   class="st3"
   cx="587.2"
   cy="262.6"
   r="13.1"
   id="circle132" />
<path
   class="st4"
   d="M640.6,262.6c0-7.2,5.9-13.1,13.1-13s13.1,5.9,13,13.1c0,7.2-5.9,13-13.1,13  C646.5,275.7,640.6,269.8,640.6,262.6L640.6,262.6"
   id="path134" />
<ellipse
   class="st5"
   cx="653.7"
   cy="262.6"
   rx="13.1"
   ry="13.1"
   id="ellipse136" />
<path
   class="st10"
   d="M427,301.3c-0.7,0-1.2-0.2-1.7-0.7s-0.7-1.1-0.7-1.8s0.2-1.3,0.7-1.8s1-0.7,1.7-0.7s1.2,0.2,1.7,0.7  s0.7,1.1,0.7,1.8s-0.2,1.3-0.7,1.8C428.2,301.1,427.7,301.3,427,301.3z M438.8,301.3c-0.7,0-1.2-0.2-1.7-0.7s-0.7-1.1-0.7-1.8  s0.2-1.3,0.7-1.8s1-0.7,1.7-0.7s1.2,0.2,1.7,0.7s0.7,1.1,0.7,1.8s-0.2,1.3-0.7,1.8C440.1,301.1,439.5,301.3,438.8,301.3z   M450.6,301.3c-0.7,0-1.2-0.2-1.7-0.7s-0.7-1.1-0.7-1.8s0.2-1.3,0.7-1.8s1-0.7,1.7-0.7s1.2,0.2,1.7,0.7s0.7,1.1,0.7,1.8  s-0.2,1.3-0.7,1.8C451.9,301.1,451.3,301.3,450.6,301.3z"
   id="path138" />
<linearGradient
   id="SVGID_1_"
   gradientUnits="userSpaceOnUse"
   x1="35.1"
   y1="802.6399"
   x2="35.1"
   y2="759.5399"
   gradientTransform="matrix(1 0 0 -1 57.6 1146.8398)">
	<stop
   offset="0"
   style="stop-color:#52D681"
   id="stop140" />
	<stop
   offset="0.5"
   style="stop-color:#26D470"
   id="stop142" />
	<stop
   offset="1"
   style="stop-color:#1AC361"
   id="stop144" />
</linearGradient>
<rect
   x="13"
   y="344.2"
   class="st11"
   width="159.4"
   height="43.1"
   id="rect147" />
<rect
   x="13"
   y="344.2"
   class="st12"
   width="159.4"
   height="43.1"
   id="rect149" />
<path
   class="st0"
   d="M56.5,363.3c0-4.2,1.9-6.6,5.1-6.6c2.1,0,3.5,1,4.3,2.8l-1.2,0.7c-0.5-1.3-1.5-2.1-3.1-2.1  c-2.2,0-3.4,1.7-3.4,4.3v1.9c0,2.6,1.3,4.1,3.4,4.1c1.6,0,2.7-0.9,3.2-2.3l1.2,0.8c-0.8,1.8-2.3,2.9-4.4,2.9  C58.3,369.7,56.5,367.5,56.5,363.3z"
   id="path151" />
<path
   class="st0"
   d="M69.6,369.5c-1,0-1.5-0.6-1.5-1.5v-11.8h1.4v12.1h1.4v1.3h-1.3V369.5z"
   id="path153" />
<path
   class="st0"
   d="M79.8,369.5c-1.1,0-1.5-0.6-1.6-1.5h-0.1c-0.4,1.1-1.4,1.7-2.7,1.7c-2,0-3.1-1.1-3.1-2.8c0-1.7,1.3-2.7,4-2.7  h1.8v-0.9c0-1.3-0.7-2-2.2-2c-1.1,0-1.9,0.5-2.4,1.4l-0.9-0.8c0.5-1,1.6-1.8,3.3-1.8c2.2,0,3.6,1.2,3.6,3.1v5.1h1.1v1.3h-0.8V369.5z   M78.1,366.8v-1.5h-1.9c-1.6,0-2.4,0.5-2.4,1.4v0.4c0,0.9,0.7,1.4,1.8,1.4C77,368.5,78.1,367.7,78.1,366.8z"
   id="path155" />
<path
   class="st0"
   d="M81.7,367.9l1-0.8c0.7,0.9,1.6,1.4,2.8,1.4c1.2,0,1.9-0.6,1.9-1.5c0-0.7-0.4-1.3-1.6-1.5l-0.7-0.1  c-1.7-0.3-3-1-3-2.7c0-1.8,1.4-2.7,3.3-2.7c1.5,0,2.5,0.6,3.2,1.5l-1,0.9c-0.4-0.6-1.2-1.1-2.4-1.1c-1.2,0-1.8,0.6-1.8,1.4  c0,0.9,0.6,1.3,1.8,1.4l0.7,0.1c2.1,0.3,2.8,1.2,2.8,2.6c0,1.8-1.3,2.9-3.4,2.9C83.7,369.7,82.6,369,81.7,367.9z"
   id="path157" />
<path
   class="st0"
   d="M90.4,367.9l1-0.8c0.7,0.9,1.6,1.4,2.8,1.4c1.2,0,1.9-0.6,1.9-1.5c0-0.7-0.4-1.3-1.6-1.5l-0.7-0.1  c-1.7-0.3-3-1-3-2.7c0-1.8,1.4-2.7,3.3-2.7c1.5,0,2.5,0.6,3.2,1.5l-1,0.9c-0.4-0.6-1.2-1.1-2.4-1.1c-1.2,0-1.8,0.6-1.8,1.4  c0,0.9,0.6,1.3,1.8,1.4l0.7,0.1c2.1,0.3,2.8,1.2,2.8,2.6c0,1.8-1.3,2.9-3.4,2.9C92.4,369.7,91.2,369,90.4,367.9z"
   id="path159" />
<path
   class="st0"
   d="M99.9,357.2V357c0-0.5,0.3-0.8,0.9-0.8s0.9,0.3,0.9,0.8v0.2c0,0.5-0.3,0.8-0.9,0.8  C100.2,358,99.9,357.7,99.9,357.2z M100,360.2h1.4v9.3H100V360.2z"
   id="path161" />
<path
   class="st0"
   d="M105.1,361.4h-1.5v-1.3h1.5v-1.9c0-1.3,0.7-2.2,2-2.2h1.4v1.3h-2v2.8h2v1.3h-2v8h-1.4V361.4z"
   id="path163" />
<path
   class="st0"
   d="m 113.6,364.8 c 0,-3 1.7,-4.9 4.2,-4.9 2.5,0 4,1.9 4,4.5 v 0.7 h -6.7 v 0.4 c 0,1.6 1,2.8 2.8,2.8 1.2,0 2.1,-0.6 2.6,-1.6 l 1,0.7 c -0.6,1.3 -1.9,2.1 -3.7,2.1 -2.5,0.2 -4.2,-1.7 -4.2,-4.7 z m 1.5,-0.8 v 0.1 h 5.1 v -0.2 c 0,-1.6 -1,-2.7 -2.5,-2.7 -1.5,0 -2.6,1.2 -2.6,2.8 z"
   id="path165"
   inkscape:connector-curvature="0"
   style="fill:#ffffff" />
<path
   class="st0"
   d="m 124.2,369.5 v -9.3 h 1.4 v 1.7 h 0.1 c 0.3,-0.9 1.2,-1.7 2.7,-1.7 h 0.6 v 1.4 h -0.8 c -1.5,0 -2.5,0.7 -2.5,1.5 v 6.3 h -1.5 z"
   id="path167"
   inkscape:connector-curvature="0"
   style="fill:#ffffff" />
<linearGradient
   id="SVGID_2_"
   gradientUnits="userSpaceOnUse"
   x1="-162.85"
   y1="802.6399"
   x2="-162.85"
   y2="759.5399"
   gradientTransform="matrix(1 0 0 -1 453.6 1146.8398)">
	<stop
   offset="0"
   style="stop-color:#52D681"
   id="stop169" />
	<stop
   offset="0.5"
   style="stop-color:#26D470"
   id="stop171" />
	<stop
   offset="1"
   style="stop-color:#1AC361"
   id="stop173" />
</linearGradient>
<rect
   x="211"
   y="344.2"
   class="st13"
   width="159.5"
   height="43.1"
   id="rect176" />
<rect
   x="211"
   y="344.2"
   class="st12"
   width="159.5"
   height="43.1"
   id="rect178" />
<path
   class="st0"
   d="M254.5,363.3c0-4.2,1.9-6.6,5.1-6.6c2.1,0,3.5,1,4.3,2.8l-1.2,0.7c-0.5-1.3-1.5-2.1-3.1-2.1  c-2.2,0-3.4,1.7-3.4,4.3v1.9c0,2.6,1.3,4.1,3.4,4.1c1.6,0,2.7-0.9,3.2-2.3l1.2,0.8c-0.8,1.8-2.3,2.9-4.4,2.9  C256.4,369.7,254.5,367.5,254.5,363.3z"
   id="path180" />
<path
   class="st0"
   d="M267.7,369.5c-1,0-1.5-0.6-1.5-1.5v-11.8h1.4v12.1h1.4v1.3h-1.3V369.5z"
   id="path182" />
<path
   class="st0"
   d="M277.8,369.5c-1.1,0-1.5-0.6-1.6-1.5h-0.1c-0.4,1.1-1.4,1.7-2.7,1.7c-2,0-3.1-1.1-3.1-2.8c0-1.7,1.3-2.7,4-2.7  h1.8v-0.9c0-1.3-0.7-2-2.2-2c-1.1,0-1.9,0.5-2.4,1.4l-0.9-0.8c0.5-1,1.6-1.8,3.3-1.8c2.2,0,3.6,1.2,3.6,3.1v5.1h1.1v1.3h-0.8V369.5z   M276.2,366.8v-1.5h-1.9c-1.6,0-2.4,0.5-2.4,1.4v0.4c0,0.9,0.7,1.4,1.8,1.4C275.1,368.5,276.2,367.7,276.2,366.8z"
   id="path184" />
<path
   class="st0"
   d="M279.8,367.9l1-0.8c0.7,0.9,1.6,1.4,2.8,1.4c1.2,0,1.9-0.6,1.9-1.5c0-0.7-0.4-1.3-1.6-1.5l-0.7-0.1  c-1.7-0.3-3-1-3-2.7c0-1.8,1.4-2.7,3.3-2.7c1.5,0,2.5,0.6,3.2,1.5l-1,0.9c-0.4-0.6-1.2-1.1-2.4-1.1c-1.2,0-1.8,0.6-1.8,1.4  c0,0.9,0.6,1.3,1.8,1.4l0.7,0.1c2.1,0.3,2.8,1.2,2.8,2.6c0,1.8-1.3,2.9-3.4,2.9C281.8,369.7,280.7,369,279.8,367.9z"
   id="path186" />
<path
   class="st0"
   d="M288.5,367.9l1-0.8c0.7,0.9,1.6,1.4,2.8,1.4c1.2,0,1.9-0.6,1.9-1.5c0-0.7-0.4-1.3-1.6-1.5l-0.7-0.1  c-1.7-0.3-3-1-3-2.7c0-1.8,1.4-2.7,3.3-2.7c1.5,0,2.5,0.6,3.2,1.5l-1,0.9c-0.4-0.6-1.2-1.1-2.4-1.1c-1.2,0-1.8,0.6-1.8,1.4  c0,0.9,0.6,1.3,1.8,1.4l0.7,0.1c2.1,0.3,2.8,1.2,2.8,2.6c0,1.8-1.3,2.9-3.4,2.9C290.4,369.7,289.3,369,288.5,367.9z"
   id="path188" />
<path
   class="st0"
   d="M298,357.2V357c0-0.5,0.3-0.8,0.9-0.8s0.9,0.3,0.9,0.8v0.2c0,0.5-0.3,0.8-0.9,0.8  C298.2,358,298,357.7,298,357.2z M298.1,360.2h1.4v9.3h-1.4V360.2z"
   id="path190" />
<path
   class="st0"
   d="M303.1,361.4h-1.5v-1.3h1.5v-1.9c0-1.3,0.7-2.2,2-2.2h1.4v1.3h-2v2.8h2v1.3h-2v8h-1.4V361.4z"
   id="path192" />
<path
   class="st0"
   d="m 311.7,364.8 c 0,-3 1.7,-4.9 4.2,-4.9 2.5,0 4,1.9 4,4.5 v 0.7 h -6.7 v 0.4 c 0,1.6 1,2.8 2.8,2.8 1.2,0 2.1,-0.6 2.6,-1.6 l 1,0.7 c -0.6,1.3 -1.9,2.1 -3.7,2.1 -2.5,0.2 -4.2,-1.7 -4.2,-4.7 z m 1.5,-0.8 v 0.1 h 5.1 v -0.2 c 0,-1.6 -1,-2.7 -2.5,-2.7 -1.5,0 -2.6,1.2 -2.6,2.8 z"
   id="path194"
   inkscape:connector-curvature="0"
   style="fill:#ffffff" />
<path
   class="st0"
   d="m 322.3,369.5 v -9.3 h 1.4 v 1.7 h 0.1 c 0.3,-0.9 1.2,-1.7 2.7,-1.7 h 0.6 v 1.4 h -0.8 c -1.5,0 -2.5,0.7 -2.5,1.5 v 6.3 h -1.5 z"
   id="path196"
   inkscape:connector-curvature="0"
   style="fill:#ffffff" />
<linearGradient
   id="SVGID_3_"
   gradientUnits="userSpaceOnUse"
   x1="-459.3"
   y1="802.6399"
   x2="-459.3"
   y2="759.5399"
   gradientTransform="matrix(1 0 0 -1 1046.4 1146.8398)">
	<stop
   offset="0"
   style="stop-color:#52D681"
   id="stop198" />
	<stop
   offset="0.5"
   style="stop-color:#26D470"
   id="stop200" />
	<stop
   offset="1"
   style="stop-color:#1AC361"
   id="stop202" />
</linearGradient>
<rect
   x="507.4"
   y="344.2"
   class="st14"
   width="159.4"
   height="43.1"
   id="rect205" />
<rect
   x="507.4"
   y="344.2"
   class="st12"
   width="159.4"
   height="43.1"
   id="rect207" />
<path
   class="st0"
   d="M550.9,363.3c0-4.2,1.9-6.6,5.1-6.6c2.1,0,3.5,1,4.3,2.8l-1.2,0.7c-0.5-1.3-1.5-2.1-3.1-2.1  c-2.2,0-3.4,1.7-3.4,4.3v1.9c0,2.6,1.3,4.1,3.4,4.1c1.6,0,2.7-0.9,3.2-2.3l1.2,0.8c-0.8,1.8-2.3,2.9-4.4,2.9  C552.8,369.7,550.9,367.5,550.9,363.3z"
   id="path209" />
<path
   class="st0"
   d="M564.1,369.5c-1,0-1.5-0.6-1.5-1.5v-11.8h1.4v12.1h1.4v1.3h-1.3V369.5z"
   id="path211" />
<path
   class="st0"
   d="M574.2,369.5c-1.1,0-1.5-0.6-1.6-1.5h-0.1c-0.4,1.1-1.4,1.7-2.7,1.7c-2,0-3.1-1.1-3.1-2.8c0-1.7,1.3-2.7,4-2.7  h1.8v-0.9c0-1.3-0.7-2-2.2-2c-1.1,0-1.9,0.5-2.4,1.4l-0.9-0.8c0.5-1,1.6-1.8,3.3-1.8c2.2,0,3.6,1.2,3.6,3.1v5.1h1.1v1.3h-0.8V369.5z   M572.5,366.8v-1.5h-1.9c-1.6,0-2.4,0.5-2.4,1.4v0.4c0,0.9,0.7,1.4,1.8,1.4C571.5,368.5,572.5,367.7,572.5,366.8z"
   id="path213" />
<path
   class="st0"
   d="M576.2,367.9l1-0.8c0.7,0.9,1.6,1.4,2.8,1.4s1.9-0.6,1.9-1.5c0-0.7-0.4-1.3-1.6-1.5l-0.7-0.1  c-1.7-0.3-3-1-3-2.7c0-1.8,1.4-2.7,3.3-2.7c1.5,0,2.5,0.6,3.2,1.5l-1,0.9c-0.4-0.6-1.2-1.1-2.4-1.1s-1.8,0.6-1.8,1.4  c0,0.9,0.6,1.3,1.8,1.4l0.7,0.1c2.1,0.3,2.8,1.2,2.8,2.6c0,1.8-1.3,2.9-3.4,2.9C578.1,369.7,577,369,576.2,367.9z"
   id="path215" />
<path
   class="st0"
   d="M584.8,367.9l1-0.8c0.7,0.9,1.6,1.4,2.8,1.4s1.9-0.6,1.9-1.5c0-0.7-0.4-1.3-1.6-1.5l-0.7-0.1  c-1.7-0.3-3-1-3-2.7c0-1.8,1.4-2.7,3.3-2.7c1.5,0,2.5,0.6,3.2,1.5l-1,0.9c-0.4-0.6-1.2-1.1-2.4-1.1s-1.8,0.6-1.8,1.4  c0,0.9,0.6,1.3,1.8,1.4l0.7,0.1c2.1,0.3,2.8,1.2,2.8,2.6c0,1.8-1.3,2.9-3.4,2.9C586.8,369.7,585.7,369,584.8,367.9z"
   id="path217" />
<path
   class="st0"
   d="M594.3,357.2V357c0-0.5,0.3-0.8,0.9-0.8s0.9,0.3,0.9,0.8v0.2c0,0.5-0.3,0.8-0.9,0.8S594.3,357.7,594.3,357.2z   M594.5,360.2h1.4v9.3h-1.4V360.2z"
   id="path219" />
<path
   class="st0"
   d="M599.5,361.4H598v-1.3h1.5v-1.9c0-1.3,0.7-2.2,2-2.2h1.4v1.3h-2v2.8h2v1.3h-2v8h-1.4V361.4z"
   id="path221" />
<path
   class="st0"
   d="m 608.1,364.8 c 0,-3 1.7,-4.9 4.2,-4.9 2.5,0 4,1.9 4,4.5 v 0.7 h -6.7 v 0.4 c 0,1.6 1,2.8 2.8,2.8 1.2,0 2.1,-0.6 2.6,-1.6 l 1,0.7 c -0.6,1.3 -1.9,2.1 -3.7,2.1 -2.6,0.2 -4.2,-1.7 -4.2,-4.7 z m 1.5,-0.8 v 0.1 h 5.1 v -0.2 c 0,-1.6 -1,-2.7 -2.5,-2.7 -1.5,0 -2.6,1.2 -2.6,2.8 z"
   id="path223"
   inkscape:connector-curvature="0"
   style="fill:#ffffff" />
<path
   class="st0"
   d="m 618.6,369.5 v -9.3 h 1.4 v 1.7 h 0.1 c 0.3,-0.9 1.2,-1.7 2.7,-1.7 h 0.6 v 1.4 h -0.8 c -1.5,0 -2.5,0.7 -2.5,1.5 v 6.3 h -1.5 z"
   id="path225"
   inkscape:connector-curvature="0"
   style="fill:#ffffff" />
<linearGradient
   id="SVGID_4_"
   gradientUnits="userSpaceOnUse"
   x1="-156.84"
   y1="702.8399"
   x2="-156.84"
   y2="647.1399"
   gradientTransform="matrix(1 0 0 -1 497.04 1146.8398)">
	<stop
   offset="0"
   style="stop-color:#57A3E0"
   id="stop227" />
	<stop
   offset="0.5"
   style="stop-color:#2C9AE3"
   id="stop229" />
	<stop
   offset="1"
   style="stop-color:#1C8AD3"
   id="stop231" />
</linearGradient>
<rect
   x="232.7"
   y="444"
   class="st15"
   width="215"
   height="55.7"
   id="rect234" />
<rect
   x="232.7"
   y="444"
   class="st16"
   width="215"
   height="55.7"
   id="rect236" />
<path
   class="st0"
   d="M250.1,476.1v-14h9.5v2.7h-6.5v2.9h5.5v2.7h-5.5v3h6.5v2.7L250.1,476.1L250.1,476.1z"
   id="path238" />
<path
   class="st0"
   d="M262.1,476.1v-10.5h3v1.8h0.1c0.4-1.1,1.3-2,2.9-2c2.1,0,3.3,1.5,3.3,4.2v6.6h-3v-6.4c0-1.3-0.4-2-1.5-2  c-1,0-1.9,0.5-1.9,1.5v6.8H262.1z"
   id="path240" />
<path
   class="st0"
   d="M273.2,474.4l1.7-1.8c0.7,0.8,1.6,1.3,2.8,1.3c1.2,0,1.6-0.4,1.6-1c0-0.5-0.3-0.8-1.1-0.9l-1.1-0.1  c-2.4-0.3-3.5-1.3-3.5-3.2c0-2,1.6-3.4,4.1-3.4c2.2,0,3.2,0.6,4.3,1.6l-1.7,1.7c-0.7-0.7-1.5-1.1-2.4-1.1c-1,0-1.4,0.4-1.4,0.9  c0,0.6,0.2,0.9,1.1,1l1.2,0.2c2.3,0.3,3.5,1.3,3.5,3.2c0,2-1.8,3.5-4.5,3.5C275.6,476.3,274.3,475.6,273.2,474.4z"
   id="path242" />
<path
   class="st0"
   d="M283.5,470.8c0-3.3,1.8-5.5,4.9-5.5c3.5,0,4.9,2.5,4.9,5.4v0.9h-6.8v0.2c0,1.4,0.7,2.3,2.3,2.3  c1.2,0,1.9-0.6,2.6-1.3l1.5,1.8c-0.9,1.1-2.5,1.7-4.4,1.7C285.3,476.3,283.5,474.2,283.5,470.8z M286.5,469.6v0.2h3.7v-0.2  c0-1.3-0.6-2.1-1.8-2.1S286.5,468.3,286.5,469.6z"
   id="path244" />
<path
   class="st0"
   d="M295.4,476.1v-10.5h3v1.8h0.1c0.4-1.1,1.3-2,2.8-2c1.4,0,2.5,0.7,2.9,2.1h0.1c0.4-1.2,1.6-2.1,3.2-2.1  c2,0,3.1,1.5,3.1,4.2v6.6h-3v-6.4c0-1.4-0.5-2-1.4-2s-1.7,0.5-1.7,1.5v6.8h-3v-6.4c0-1.4-0.5-2-1.4-2s-1.7,0.5-1.7,1.5v6.8h-3V476.1  z"
   id="path246" />
<path
   class="st0"
   d="M313.3,461.2h3v6.1h0.1c0.3-1.2,1.5-2,2.8-2c2.7,0,4,1.9,4,5.5s-1.4,5.5-4,5.5c-1.4,0-2.5-0.9-2.8-2h-0.1v1.8  h-3V461.2z M320.2,471.7v-1.8c0-1.3-0.8-2.2-1.9-2.2s-1.9,0.6-1.9,1.5v3.1c0,1,0.8,1.5,1.9,1.5S320.2,473,320.2,471.7z"
   id="path248" />
<path
   class="st0"
   d="M328.4,476.1c-2,0-2.9-1-2.9-2.9v-11.9h3v12.5h1.3v2.3H328.4z"
   id="path250" />
<path
   class="st0"
   d="M330.9,470.8c0-3.3,1.8-5.5,4.9-5.5c3.5,0,4.9,2.5,4.9,5.4v0.9H334v0.2c0,1.4,0.7,2.3,2.3,2.3  c1.2,0,1.9-0.6,2.6-1.3l1.5,1.8c-0.9,1.1-2.5,1.7-4.4,1.7C332.7,476.3,330.9,474.2,330.9,470.8z M334,469.6v0.2h3.7v-0.2  c0-1.3-0.6-2.1-1.8-2.1S334,468.3,334,469.6z"
   id="path252" />
<path
   class="st0"
   d="M346.9,470.8c0-3.4,1.7-5.5,4.9-5.5c2.1,0,3.6,1,4.2,2.7l-2.4,1c-0.2-0.8-0.8-1.4-1.8-1.4  c-1.2,0-1.8,0.9-1.8,2.2v2c0,1.3,0.6,2.2,1.8,2.2c1.2,0,1.7-0.7,2-1.6l2.3,1c-0.7,2-2.2,2.9-4.3,2.9  C348.6,476.3,346.9,474.2,346.9,470.8z"
   id="path254" />
<path
   class="st0"
   d="M360.9,476.1c-2,0-2.9-1-2.9-2.9v-11.9h3v12.5h1.3v2.3H360.9z"
   id="path256" />
<path
   class="st0"
   d="M371.8,476.1c-1.1,0-1.8-0.7-2-1.8h-0.1c-0.3,1.4-1.5,2.1-3.1,2.1c-2.1,0-3.3-1.2-3.3-3.1  c0-2.2,1.7-3.3,4.5-3.3h1.7v-0.7c0-1-0.5-1.7-1.7-1.7s-1.8,0.6-2.3,1.2l-1.8-1.6c0.8-1.2,2-2,4.2-2c3,0,4.5,1.4,4.5,3.8v4.6h1v2.3  h-1.6V476.1z M369.5,472.9v-1.2H368c-1.1,0-1.7,0.4-1.7,1.2v0.3c0,0.8,0.5,1.1,1.4,1.1C368.6,474.2,369.5,473.8,369.5,472.9z"
   id="path258" />
<path
   class="st0"
   d="M374.5,474.4l1.7-1.8c0.7,0.8,1.6,1.3,2.8,1.3c1.2,0,1.6-0.4,1.6-1c0-0.5-0.3-0.8-1.1-0.9l-1.1-0.1  c-2.4-0.3-3.5-1.3-3.5-3.2c0-2,1.6-3.4,4.1-3.4c2.2,0,3.2,0.6,4.3,1.6l-1.7,1.7c-0.7-0.7-1.5-1.1-2.4-1.1c-1,0-1.4,0.4-1.4,0.9  c0,0.6,0.2,0.9,1.1,1l1.2,0.2c2.3,0.3,3.5,1.3,3.5,3.2c0,2-1.8,3.5-4.5,3.5C376.9,476.3,375.6,475.6,374.5,474.4z"
   id="path260" />
<path
   class="st0"
   d="M384.5,474.4l1.7-1.8c0.7,0.8,1.6,1.3,2.8,1.3c1.2,0,1.6-0.4,1.6-1c0-0.5-0.3-0.8-1.1-0.9l-1.1-0.1  c-2.4-0.3-3.5-1.3-3.5-3.2c0-2,1.6-3.4,4.1-3.4c2.2,0,3.2,0.6,4.3,1.6l-1.7,1.7c-0.7-0.7-1.5-1.1-2.4-1.1c-1,0-1.4,0.4-1.4,0.9  c0,0.6,0.2,0.9,1.1,1l1.2,0.2c2.3,0.3,3.5,1.3,3.5,3.2c0,2-1.8,3.5-4.5,3.5C386.9,476.3,385.6,475.6,384.5,474.4z"
   id="path262" />
<path
   class="st0"
   d="M395.2,463v-0.4c0-0.8,0.5-1.5,1.7-1.5s1.7,0.6,1.7,1.5v0.4c0,0.8-0.5,1.5-1.7,1.5  C395.7,464.4,395.2,463.8,395.2,463z M395.5,465.5h3V476h-3V465.5z"
   id="path264" />
<path
   class="st0"
   d="M401.7,467.8h-1.5v-2.3h1.5v-1.2c0-2,1.1-3.1,3.1-3.1h1.9v2.3h-2.1v2h2.1v2.3h-2.1v8.2h-3v-8.2H401.7z"
   id="path266" />
<path
   class="st0"
   d="m 411.7,470.8 c 0,-3.3 1.8,-5.5 4.9,-5.5 3.5,0 4.9,2.5 4.9,5.4 v 0.9 h -6.8 v 0.2 c 0,1.4 0.7,2.3 2.3,2.3 1.2,0 1.9,-0.6 2.6,-1.3 l 1.5,1.8 c -0.9,1.1 -2.5,1.7 -4.4,1.7 -3.2,0 -5,-2.1 -5,-5.5 z m 3,-1.2 v 0.2 h 3.7 v -0.2 c 0,-1.3 -0.6,-2.1 -1.8,-2.1 -1.2,0 -1.9,0.8 -1.9,2.1 z"
   id="path268"
   inkscape:connector-curvature="0"
   style="fill:#ffffff" />
<path
   class="st0"
   d="m 423.6,476.1 v -10.5 h 3 v 2.3 h 0.1 c 0.2,-1.2 1,-2.3 2.7,-2.3 h 0.5 v 2.8 h -0.7 c -1.7,0 -2.6,0.4 -2.6,1.6 v 6.2 h -3 z"
   id="path270"
   inkscape:connector-curvature="0"
   style="fill:#ffffff" />
<polyline
   class="st1"
   points="340.2,150.3 340.2,175.4 93.2,175.4 93.2,194.9 "
   id="polyline272" />
<polygon
   class="st2"
   points="96.6,193.7 93.2,200.6 89.8,193.7 "
   id="polygon274" />
<polyline
   class="st1"
   points="340.2,150.3 340.2,175.4 290.8,175.4 290.8,194.9 "
   id="polyline276" />
<polygon
   class="st2"
   points="294.2,193.7 290.8,200.6 287.4,193.7 "
   id="polygon278" />
<polyline
   class="st1"
   points="340.3,150.3 340.3,175.4 587.3,175.4 587.3,194.9 "
   id="polyline280" />
<polygon
   class="st2"
   points="583.9,193.7 587.3,200.6 590.7,193.7 "
   id="polygon282" />
<polyline
   class="st17"
   points="92.7,387.3 92.7,415.7 340.3,415.7 340.3,438.4 "
   id="polyline284" />
<polygon
   class="st18"
   points="336.9,437.3 340.3,444.1 343.7,437.3 "
   id="polygon286" />
<polyline
   class="st17"
   points="290.8,387.3 290.8,415.7 340.3,415.7 340.3,438.4 "
   id="polyline288" />
<polygon
   class="st18"
   points="336.9,437.3 340.3,444.1 343.7,437.3 "
   id="polygon290" />
<polyline
   class="st17"
   points="587.1,387.3 587.1,415.7 340.3,415.7 340.3,438.4 "
   id="polyline292" />
<polygon
   class="st18"
   points="343.7,437.3 340.3,444.1 336.8,437.3 "
   id="polygon294" />
<path
   class="st8"
   d="M308.1,49.6c0-7.2,5.9-13.1,13.1-13s13.1,5.9,13,13.1c0,7.2-5.9,13-13.1,13C313.9,62.7,308.1,56.8,308.1,49.6  L308.1,49.6"
   id="path296" />
<ellipse
   class="st9"
   cx="321.2"
   cy="49.6"
   rx="13.1"
   ry="13.1"
   id="ellipse298" />
<path
   class="st2"
   d="M338,62.6c0-7.3,5.9-13.1,13.1-13.1c7.3,0,13.1,5.9,13.1,13.1s-5.9,13.1-13.1,13.1l0,0  C343.9,75.8,338,69.9,338,62.6"
   id="path300" />
<circle
   class="st3"
   cx="351.1"
   cy="62.6"
   r="13.1"
   id="circle302" />
<path
   class="st6"
   d="M305.2,84.1c0-7.3,5.9-13.1,13.1-13.1c7.3,0,13.1,5.9,13.1,13.1c0,7.3-5.9,13.1-13.1,13.1l0,0  C311.1,97.2,305.2,91.4,305.2,84.1"
   id="path304" />
<circle
   class="st7"
   cx="318.4"
   cy="84.1"
   r="13.1"
   id="circle306" />
<path
   class="st8"
   d="M351.1,31.1c0-7.3,5.9-13.1,13.1-13.1c7.3,0,13.1,5.9,13.1,13.1c0,7.3-5.9,13.1-13.1,13.1  S351.1,38.3,351.1,31.1L351.1,31.1"
   id="path308" />
<circle
   class="st9"
   cx="364.2"
   cy="31.1"
   r="13.1"
   id="circle310" />
<path
   class="st8"
   d="M368,63.2c0-7.2,5.9-13.1,13.1-13s13.1,5.9,13,13.1c0,7.2-5.9,13-13.1,13C373.8,76.4,368,70.5,368,63.2  L368,63.2"
   id="path312" />
<ellipse
   class="st9"
   cx="381.1"
   cy="63.2"
   rx="13.1"
   ry="13.1"
   id="ellipse314" />
<path
   class="st8"
   d="M338,94.3c0-7.3,5.9-13.1,13.1-13.1c7.3,0,13.1,5.9,13.1,13.1s-5.9,13.1-13.1,13.1S338,101.6,338,94.3L338,94.3  "
   id="path316" />
<circle
   class="st9"
   cx="351.1"
   cy="94.3"
   r="13.1"
   id="circle318" />
<path
   class="st4"
   d="M277.3,64.2c0-7.2,5.9-13.1,13.1-13c7.2,0,13.1,5.9,13,13.1c0,7.2-5.9,13-13.1,13  C283.1,77.3,277.2,71.4,277.3,64.2C277.2,64.2,277.2,64.2,277.3,64.2"
   id="path320" />
<ellipse
   class="st5"
   cx="290.3"
   cy="64.2"
   rx="13.1"
   ry="13.1"
   id="ellipse322" />
<path
   class="st2"
   d="M284,109.7c0-7.2,5.9-13,13.2-13c7.2,0,13,5.9,13,13.2c0,7.2-5.9,13-13.1,13C289.8,122.8,284,116.9,284,109.7  L284,109.7"
   id="path324" />
<ellipse
   class="st3"
   cx="297.1"
   cy="109.7"
   rx="13.1"
   ry="13.1"
   id="ellipse326" />
<path
   class="st2"
   d="M371.5,95.5c0-7.3,5.8-13.2,13.1-13.2c7.3,0,13.2,5.8,13.2,13.1c0,7.3-5.8,13.2-13.1,13.2c0,0,0,0-0.1,0  C377.4,108.6,371.5,102.7,371.5,95.5L371.5,95.5"
   id="path328" />
<ellipse
   class="st3"
   cx="384.6"
   cy="95.5"
   rx="13.1"
   ry="13.1"
   id="ellipse330" />
<path
   class="st4"
   d="M317.6,118.6c0-7.3,5.9-13.1,13.1-13.1c7.3,0,13.1,5.9,13.1,13.1s-5.9,13.1-13.1,13.1S317.6,125.8,317.6,118.6  L317.6,118.6"
   id="path332" />
<circle
   class="st5"
   cx="330.7"
   cy="118.6"
   r="13.1"
   id="circle334" />
<path
   class="st2"
   d="M260.2,30.2c0-7.3,5.9-13.1,13.1-13.1c7.3,0,13.1,5.9,13.1,13.1s-5.9,13.1-13.1,13.1l0,0  C266.1,43.4,260.2,37.5,260.2,30.2"
   id="path336" />
<circle
   class="st3"
   cx="273.4"
   cy="30.2"
   r="13.1"
   id="circle338" />
<path
   class="st4"
   d="M243.8,59c0-7.3,5.9-13.1,13.1-13.1c7.3,0,13.1,5.9,13.1,13.1s-5.9,13.1-13.1,13.1S243.8,66.3,243.8,59  L243.8,59"
   id="path340" />
<circle
   class="st5"
   cx="256.9"
   cy="59"
   r="13.1"
   id="circle342" />
<path
   class="st6"
   d="M253.4,97.3c0-7.3,5.8-13.2,13.1-13.2c7.3,0,13.2,5.8,13.2,13.1c0,7.3-5.8,13.2-13.1,13.2c0,0,0,0-0.1,0  C259.3,110.4,253.4,104.5,253.4,97.3L253.4,97.3"
   id="path344" />
<ellipse
   class="st7"
   cx="266.5"
   cy="97.3"
   rx="13.1"
   ry="13.1"
   id="ellipse346" />
<path
   class="st4"
   d="M322.9,20.1c0-7.3,5.8-13.2,13.1-13.2c7.3,0,13.2,5.8,13.2,13.1s-5.8,13.2-13.1,13.2c0,0,0,0-0.1,0  C328.8,33.2,322.9,27.3,322.9,20.1L322.9,20.1"
   id="path348" />
<ellipse
   class="st5"
   cx="336"
   cy="20.1"
   rx="13.1"
   ry="13.1"
   id="ellipse350" />
<path
   class="st2"
   d="M392.9,41.5c0-7.2,5.9-13.1,13.1-13.1s13.1,5.9,13.1,13.1s-5.9,13.1-13.1,13.1l0,0  C398.8,54.6,392.9,48.7,392.9,41.5"
   id="path352" />
<circle
   class="st3"
   cx="406"
   cy="41.5"
   r="13.1"
   id="circle354" />
<path
   class="st6"
   d="M410.5,105.5c0-7.3,5.9-13.1,13.1-13.1c7.3,0,13.1,5.9,13.1,13.1s-5.9,13.1-13.1,13.1S410.5,112.7,410.5,105.5  L410.5,105.5"
   id="path356" />
<circle
   class="st7"
   cx="423.6"
   cy="105.5"
   r="13.1"
   id="circle358" />
<path
   class="st8"
   d="M381.5,127.5c0-7.3,5.8-13.2,13.1-13.2c7.3,0,13.2,5.8,13.2,13.1s-5.8,13.2-13.1,13.2c0,0,0,0-0.1,0  C387.4,140.6,381.6,134.7,381.5,127.5L381.5,127.5"
   id="path360" />
<ellipse
   class="st9"
   cx="394.7"
   cy="127.5"
   rx="13.1"
   ry="13.1"
   id="ellipse362" />
<path
   class="st6"
   d="M349,131.7c0-7.3,5.8-13.2,13.1-13.2c7.3,0,13.2,5.8,13.2,13.1s-5.8,13.2-13.1,13.2c0,0,0,0-0.1,0  C354.9,144.8,349,138.9,349,131.7L349,131.7"
   id="path364" />
<ellipse
   class="st7"
   cx="362.2"
   cy="131.7"
   rx="13.1"
   ry="13.1"
   id="ellipse366" />
<path
   class="st6"
   d="M291.5,21.4c0-7.3,5.8-13.2,13.1-13.2s13.2,5.8,13.2,13.1s-5.8,13.2-13.1,13.2c0,0,0,0-0.1,0  C297.4,34.5,291.6,28.7,291.5,21.4L291.5,21.4"
   id="path368" />
<ellipse
   class="st7"
   cx="304.7"
   cy="21.4"
   rx="13.1"
   ry="13.1"
   id="ellipse370" />
<path
   class="st19"
   d="M727.5,79.3c0-5.6,2.8-8.7,7.1-8.7s7.1,3,7.1,8.7c0,5.6-2.8,8.7-7.1,8.7S727.5,84.9,727.5,79.3z M739.5,80.7  v-2.8c0-3.3-2-5.5-4.9-5.5s-4.9,2.2-4.9,5.5v2.8c0,3.3,2,5.5,4.9,5.5S739.5,84,739.5,80.7z"
   id="path372" />
<path
   class="st19"
   d="M745.1,87.7V75.3h1.9v2.3h0.1c0.4-1.2,1.6-2.3,3.6-2.3h0.7v1.9h-1.1c-2.1,0-3.3,0.9-3.3,2.1v8.4  C747,87.7,745.1,87.7,745.1,87.7z"
   id="path374" />
<path
   class="st19"
   d="M753.7,71.3V71c0-0.6,0.4-1.1,1.2-1.1s1.2,0.4,1.2,1.1v0.3c0,0.6-0.4,1.1-1.2,1.1S753.7,71.9,753.7,71.3z   M753.9,75.3h1.9v12.4h-1.9V75.3z"
   id="path376" />
<path
   class="st19"
   d="M764.4,92.7c-3.9,0-5.4-1.1-5.4-3c0-1.3,0.7-2.1,2-2.4V87c-0.7-0.3-1.1-0.9-1.1-1.7c0-1.2,0.9-1.8,2.1-2.2V83  c-1.5-0.7-2.3-2.1-2.3-3.8c0-2.5,1.8-4.3,4.7-4.3c0.9,0,1.7,0.2,2.4,0.5v-0.2c0-1,0.4-1.7,1.4-1.7h1.8v1.7h-2.4V76  c0.9,0.8,1.4,1.9,1.4,3.2c0,2.5-1.8,4.3-4.7,4.3c-0.4,0-0.8,0-1.2-0.1c-0.8,0.2-1.6,0.6-1.6,1.4c0,0.7,0.8,0.9,1.9,0.9h2.6  c3.1,0,4.4,1.2,4.4,3.3C770.4,91.6,768.3,92.7,764.4,92.7z M766,87.5h-4.1c-0.8,0.4-1.2,0.9-1.2,1.7c0,1.1,0.7,2,2.7,2h1.8  c2.1,0,3.4-0.7,3.4-2C768.6,88.2,767.9,87.5,766,87.5z M766.9,79.6v-0.7c0-1.6-1-2.4-2.7-2.4c-1.6,0-2.7,0.8-2.7,2.4v0.7  c0,1.6,1,2.4,2.7,2.4S766.9,81.2,766.9,79.6z"
   id="path378" />
<path
   class="st19"
   d="M772.4,71.3V71c0-0.6,0.4-1.1,1.2-1.1s1.2,0.4,1.2,1.1v0.3c0,0.6-0.4,1.1-1.2,1.1S772.4,71.9,772.4,71.3z   M772.6,75.3h1.9v12.4h-1.9V75.3z"
   id="path380" />
<path
   class="st19"
   d="M778.6,87.7V75.3h1.9v2h0.1c0.6-1.4,1.7-2.3,3.5-2.3c2.5,0,4.2,1.7,4.2,4.7v7.9h-1.9V80c0-2.2-1-3.3-2.8-3.3  c-1.5,0-3,0.8-3,2.4v8.6H778.6z"
   id="path382" />
<path
   class="st19"
   d="M801.2,87.7c-1.4,0-2-0.9-2.1-2H799c-0.5,1.5-1.8,2.3-3.6,2.3c-2.6,0-4.2-1.4-4.2-3.7c0-2.3,1.7-3.6,5.3-3.6  h2.4v-1.2c0-1.8-1-2.7-2.9-2.7c-1.5,0-2.5,0.7-3.1,1.8l-1.2-1.1c0.7-1.3,2.2-2.4,4.4-2.4c3,0,4.8,1.6,4.8,4.2V86h1.4v1.7H801.2z   M799,84v-2h-2.5c-2.2,0-3.2,0.7-3.2,1.9v0.5c0,1.2,1,1.9,2.4,1.9C797.6,86.3,799,85.3,799,84z"
   id="path384" />
<path
   class="st19"
   d="M807.1,87.7c-1.3,0-2-0.8-2-2V69.9h1.9V86h1.8v1.7H807.1z"
   id="path386" />
<path
   class="st19"
   d="M817.4,70.9h5.6c4.2,0,6.9,2.8,6.9,8.4s-2.7,8.4-6.9,8.4h-5.6V70.9z M823,85.9c2.8,0,4.7-1.9,4.7-5.2V78  c0-3.3-1.9-5.2-4.7-5.2h-3.6V86h3.6V85.9z"
   id="path388" />
<path
   class="st19"
   d="M842.3,87.7c-1.4,0-2-0.9-2.1-2h-0.1c-0.5,1.5-1.8,2.3-3.6,2.3c-2.6,0-4.2-1.4-4.2-3.7c0-2.3,1.7-3.6,5.3-3.6  h2.4v-1.2c0-1.8-1-2.7-2.9-2.7c-1.5,0-2.5,0.7-3.1,1.8l-1.2-1.1c0.7-1.3,2.2-2.4,4.4-2.4c3,0,4.8,1.6,4.8,4.2V86h1.4v1.7H842.3z   M840.1,84v-2h-2.5c-2.2,0-3.2,0.7-3.2,1.9v0.5c0,1.2,1,1.9,2.4,1.9C838.7,86.3,840.1,85.3,840.1,84z"
   id="path390" />
<path
   class="st19"
   d="M848.9,87.7c-1.3,0-2-0.8-2-2V77h-2v-1.7h1.2c0.8,0,1.1-0.3,1.1-1.1v-2.3h1.7v3.4h2.7V77h-2.7v9h2.5v1.7H848.9  z"
   id="path392" />
<path
   class="st19"
   d="M863.6,87.7c-1.4,0-2-0.9-2.1-2h-0.1c-0.5,1.5-1.8,2.3-3.6,2.3c-2.6,0-4.2-1.4-4.2-3.7c0-2.3,1.7-3.6,5.3-3.6  h2.4v-1.2c0-1.8-1-2.7-2.9-2.7c-1.5,0-2.5,0.7-3.1,1.8l-1.2-1.1c0.7-1.3,2.2-2.4,4.4-2.4c3,0,4.8,1.6,4.8,4.2V86h1.4v1.7H863.6z   M861.3,84v-2h-2.5c-2.2,0-3.2,0.7-3.2,1.9v0.5c0,1.2,1,1.9,2.4,1.9C860,86.3,861.3,85.3,861.3,84z"
   id="path394" />
<path
   class="st19"
   d="M727.9,232h8.1c2.8,0,4.4,1.7,4.4,4.3s-1.4,3.5-3.1,3.6v0.1c1.6,0,3.8,1.1,3.8,3.9c0,2.6-1.8,4.8-4.3,4.8h-8.9  V232z M731.6,238.8h3.6c1,0,1.5-0.6,1.5-1.5v-0.7c0-1-0.6-1.5-1.5-1.5h-3.6V238.8z M731.6,245.6h4.2c1,0,1.6-0.6,1.6-1.5v-0.8  c0-1-0.6-1.5-1.6-1.5h-4.2V245.6z"
   id="path396" />
<path
   class="st19"
   d="M743,242.4c0-4.1,2.2-6.6,5.9-6.6s5.9,2.5,5.9,6.6s-2.2,6.6-5.9,6.6S743,246.5,743,242.4z M751.1,243.7v-2.6  c0-1.6-0.8-2.5-2.2-2.5s-2.2,0.9-2.2,2.5v2.6c0,1.6,0.8,2.5,2.2,2.5C750.2,246.2,751.1,245.3,751.1,243.7z"
   id="path398" />
<path
   class="st19"
   d="M756.5,242.4c0-4.1,2.2-6.6,5.9-6.6s5.9,2.5,5.9,6.6s-2.2,6.6-5.9,6.6S756.5,246.5,756.5,242.4z M764.6,243.7  v-2.6c0-1.6-0.8-2.5-2.2-2.5s-2.2,0.9-2.2,2.5v2.6c0,1.6,0.8,2.5,2.2,2.5S764.6,245.3,764.6,243.7z"
   id="path400" />
<path
   class="st19"
   d="M775.1,248.7c-2.4,0-3.7-1.3-3.7-3.7v-6.2h-1.8V236h0.9c1,0,1.2-0.5,1.2-1.3v-2.1h3.2v3.4h2.5v2.8h-2.5v7.1  h2.3v2.8H775.1z"
   id="path402" />
<path
   class="st19"
   d="M778.8,246.7l2.1-2.1c0.9,1,2,1.6,3.3,1.6c1.4,0,1.9-0.5,1.9-1.2c0-0.6-0.4-0.9-1.3-1.1l-1.4-0.2  c-2.9-0.4-4.2-1.6-4.2-3.9c0-2.4,1.9-4.1,4.9-4.1c2.6,0,3.9,0.7,5.1,2l-2,2.1c-0.8-0.8-1.8-1.3-2.9-1.3c-1.2,0-1.7,0.4-1.7,1.1  c0,0.7,0.3,1,1.3,1.2l1.4,0.2c2.7,0.4,4.2,1.6,4.2,3.8c0,2.4-2.2,4.2-5.4,4.2C781.7,249,780.1,248.2,778.8,246.7z"
   id="path404" />
<path
   class="st19"
   d="M796.2,248.7c-2.4,0-3.7-1.3-3.7-3.7v-6.2h-1.8V236h0.9c1,0,1.2-0.5,1.2-1.3v-2.1h3.2v3.4h2.5v2.8H796v7.1h2.3  v2.8H796.2z"
   id="path406" />
<path
   class="st19"
   d="M801,248.7v-12.6h3.6v2.7h0.1c0.3-1.4,1.2-2.7,3.2-2.7h0.6v3.3h-0.9c-2.1,0-3.1,0.5-3.1,1.9v7.4L801,248.7  L801,248.7z"
   id="path408" />
<path
   class="st19"
   d="M819.6,248.7c-1.3,0-2.2-0.9-2.4-2.2h-0.1c-0.4,1.6-1.8,2.5-3.7,2.5c-2.5,0-3.9-1.5-3.9-3.7  c0-2.7,2.1-3.9,5.4-3.9h2v-0.8c0-1.2-0.6-2-2.1-2c-1.4,0-2.2,0.7-2.7,1.5l-2.1-1.9c1-1.5,2.4-2.4,5.1-2.4c3.6,0,5.4,1.6,5.4,4.6v5.5  h1.2v2.8L819.6,248.7L819.6,248.7z M816.9,244.9v-1.5h-1.7c-1.4,0-2.1,0.5-2.1,1.4v0.4c0,0.9,0.6,1.3,1.7,1.3  C815.9,246.5,816.9,246,816.9,244.9z"
   id="path410" />
<path
   class="st19"
   d="M824,236.1h3.6v2.1h0.1c0.4-1.4,1.8-2.4,3.4-2.4c3.2,0,4.8,2.3,4.8,6.6s-1.7,6.6-4.8,6.6c-1.6,0-3-1-3.4-2.4  h-0.1v6.9H824V236.1z M832.2,243.5v-2.2c0-1.6-1-2.6-2.3-2.6s-2.3,0.7-2.3,1.8v3.7c0,1.2,1,1.8,2.3,1.8  C831.2,246.1,832.2,245.1,832.2,243.5z"
   id="path412" />
<path
   class="st19"
   d="M838.6,236.1h3.6v2.1h0.1c0.4-1.4,1.8-2.4,3.4-2.4c3.2,0,4.8,2.3,4.8,6.6s-1.7,6.6-4.8,6.6c-1.6,0-3-1-3.4-2.4  h-0.1v6.9h-3.6V236.1z M846.8,243.5v-2.2c0-1.6-1-2.6-2.3-2.6s-2.3,0.7-2.3,1.8v3.7c0,1.2,1,1.8,2.3,1.8  C845.8,246.1,846.8,245.1,846.8,243.5z"
   id="path414" />
<path
   class="st19"
   d="M852.9,233v-0.5c0-1,0.6-1.8,2.1-1.8s2.1,0.7,2.1,1.8v0.5c0,1-0.6,1.8-2.1,1.8S852.9,234,852.9,233z   M853.2,236.1h3.6v12.6h-3.6V236.1z"
   id="path416" />
<path
   class="st19"
   d="M860,248.7v-12.6h3.6v2.1h0.1c0.5-1.3,1.5-2.4,3.5-2.4c2.6,0,3.9,1.8,3.9,5v7.9h-3.6v-7.6  c0-1.6-0.5-2.4-1.8-2.4c-1.2,0-2.3,0.6-2.3,1.8v8.2H860z"
   id="path418" />
<path
   class="st19"
   d="M879.2,253.8c-4.4,0-6-1.1-6-2.9c0-1.4,0.9-2.2,2.4-2.4v-0.3c-1.2-0.2-1.8-1.1-1.8-2.2c0-1.3,1.2-2,2.4-2.2  v-0.1c-1.5-0.7-2.3-2-2.3-3.6c0-2.5,1.8-4.2,5.4-4.2c0.8,0,1.5,0.1,2.1,0.2v-0.5c0-1.3,0.7-1.9,1.9-1.9h2v2.6h-2.8v0.1  c1.5,0.7,2.2,2,2.2,3.6c0,2.5-1.8,4.2-5.4,4.2c-0.8,0-1.6-0.1-2.2-0.3c-0.3,0.2-0.6,0.6-0.6,1c0,0.6,0.4,1,1.5,1h3.6  c3.1,0,4.4,1.3,4.4,3.7C886,252.3,884.3,253.8,879.2,253.8z M880.7,249h-4.3c-0.3,0.3-0.5,0.7-0.5,1.1c0,0.9,0.7,1.3,2.6,1.3h1.4  c1.9,0,2.6-0.4,2.6-1.3C882.7,249.4,882.1,249,880.7,249z M881.3,240.2v-0.3c0-1.1-0.7-1.7-2.1-1.7c-1.4,0-2.1,0.6-2.1,1.7v0.3  c0,1.1,0.7,1.7,2.1,1.7S881.3,241.3,881.3,240.2z"
   id="path420" />
<path
   class="st19"
   d="M737.8,370.5l-1.2-4H731l-1.2,4h-3.7l5.5-16.8h4.5l5.4,16.8H737.8z M733.8,357L733.8,357l-1.9,6.4h3.8  L733.8,357z"
   id="path422" />
<path
   class="st19"
   d="M748.5,375.6c-4.4,0-6-1.1-6-2.9c0-1.4,0.9-2.2,2.4-2.4V370c-1.2-0.2-1.8-1.1-1.8-2.2c0-1.3,1.2-2,2.4-2.2  v-0.1c-1.5-0.7-2.3-2-2.3-3.6c0-2.5,1.8-4.2,5.4-4.2c0.8,0,1.5,0.1,2.1,0.2v-0.5c0-1.3,0.7-1.9,1.9-1.9h2v2.6h-2.8v0.1  c1.5,0.7,2.2,2,2.2,3.6c0,2.5-1.8,4.2-5.4,4.2c-0.8,0-1.6-0.1-2.2-0.3c-0.3,0.2-0.6,0.6-0.6,1c0,0.6,0.4,1,1.5,1h3.6  c3.1,0,4.4,1.3,4.4,3.7C755.4,374.1,753.7,375.6,748.5,375.6z M750.1,370.8h-4.3c-0.3,0.3-0.5,0.7-0.5,1.1c0,0.9,0.7,1.3,2.6,1.3  h1.4c1.9,0,2.6-0.4,2.6-1.3C752,371.2,751.5,370.8,750.1,370.8z M750.7,362v-0.3c0-1.1-0.7-1.7-2.1-1.7c-1.4,0-2.1,0.6-2.1,1.7v0.3  c0,1.1,0.7,1.7,2.1,1.7S750.7,363.1,750.7,362z"
   id="path424" />
<path
   class="st19"
   d="M762,375.6c-4.4,0-6-1.1-6-2.9c0-1.4,0.9-2.2,2.4-2.4V370c-1.2-0.2-1.8-1.1-1.8-2.2c0-1.3,1.2-2,2.4-2.2v-0.1  c-1.5-0.7-2.3-2-2.3-3.6c0-2.5,1.8-4.2,5.4-4.2c0.8,0,1.5,0.1,2.1,0.2v-0.5c0-1.3,0.7-1.9,1.9-1.9h2v2.6h-2.8v0.1  c1.5,0.7,2.2,2,2.2,3.6c0,2.5-1.8,4.2-5.4,4.2c-0.8,0-1.6-0.1-2.2-0.3c-0.3,0.2-0.6,0.6-0.6,1c0,0.6,0.4,1,1.5,1h3.6  c3.1,0,4.4,1.3,4.4,3.7C768.8,374.1,767.1,375.6,762,375.6z M763.5,370.8h-4.3c-0.3,0.3-0.5,0.7-0.5,1.1c0,0.9,0.7,1.3,2.6,1.3h1.4  c1.9,0,2.6-0.4,2.6-1.3C765.4,371.2,764.9,370.8,763.5,370.8z M764.1,362v-0.3c0-1.1-0.7-1.7-2.1-1.7c-1.4,0-2.1,0.6-2.1,1.7v0.3  c0,1.1,0.7,1.7,2.1,1.7C763.4,363.7,764.1,363.1,764.1,362z"
   id="path426" />
<path
   class="st19"
   d="M770.4,370.5v-12.6h3.6v2.7h0.1c0.3-1.4,1.2-2.7,3.2-2.7h0.6v3.3H777c-2.1,0-3.1,0.5-3.1,1.9v7.4L770.4,370.5  L770.4,370.5z"
   id="path428" />
<path
   class="st19"
   d="M779.1,364.2c0-4,2.1-6.6,5.9-6.6c4.2,0,5.9,3,5.9,6.4v1.1h-8.1v0.2c0,1.7,0.9,2.7,2.8,2.7  c1.5,0,2.3-0.7,3.1-1.5l1.8,2.2c-1.1,1.3-3,2.1-5.3,2.1C781.3,370.8,779.1,368.2,779.1,364.2z M782.8,362.8v0.2h4.4v-0.2  c0-1.5-0.7-2.6-2.1-2.6C783.7,360.2,782.8,361.2,782.8,362.8z"
   id="path430" />
<path
   class="st19"
   d="M798.3,375.6c-4.4,0-6-1.1-6-2.9c0-1.4,0.9-2.2,2.4-2.4V370c-1.2-0.2-1.8-1.1-1.8-2.2c0-1.3,1.2-2,2.4-2.2  v-0.1c-1.5-0.7-2.3-2-2.3-3.6c0-2.5,1.8-4.2,5.4-4.2c0.8,0,1.5,0.1,2.1,0.2v-0.5c0-1.3,0.7-1.9,1.9-1.9h2v2.6h-2.8v0.1  c1.5,0.7,2.2,2,2.2,3.6c0,2.5-1.8,4.2-5.4,4.2c-0.8,0-1.6-0.1-2.2-0.3c-0.3,0.2-0.6,0.6-0.6,1c0,0.6,0.4,1,1.5,1h3.6  c3.1,0,4.4,1.3,4.4,3.7C805.1,374.1,803.4,375.6,798.3,375.6z M799.8,370.8h-4.3c-0.3,0.3-0.5,0.7-0.5,1.1c0,0.9,0.7,1.3,2.6,1.3  h1.4c1.9,0,2.6-0.4,2.6-1.3C801.8,371.2,801.2,370.8,799.8,370.8z M800.4,362v-0.3c0-1.1-0.7-1.7-2.1-1.7c-1.4,0-2.1,0.6-2.1,1.7  v0.3c0,1.1,0.7,1.7,2.1,1.7S800.4,363.1,800.4,362z"
   id="path432" />
<path
   class="st19"
   d="M815.9,370.5c-1.3,0-2.2-0.9-2.4-2.2h-0.1c-0.4,1.6-1.8,2.5-3.7,2.5c-2.5,0-3.9-1.5-3.9-3.7  c0-2.7,2.1-3.9,5.4-3.9h2v-0.8c0-1.2-0.6-2-2.1-2c-1.4,0-2.2,0.7-2.7,1.5l-2.1-1.9c1-1.5,2.4-2.4,5.1-2.4c3.6,0,5.4,1.6,5.4,4.6v5.5  h1.2v2.8H815.9z M813.2,366.7v-1.5h-1.7c-1.4,0-2.1,0.5-2.1,1.4v0.4c0,0.9,0.6,1.3,1.7,1.3C812.2,368.3,813.2,367.8,813.2,366.7z"
   id="path434" />
<path
   class="st19"
   d="M824.6,370.5c-2.4,0-3.7-1.3-3.7-3.7v-6.2H819v-2.8h0.9c1,0,1.2-0.5,1.2-1.3v-2.1h3.2v3.4h2.5v2.8h-2.5v7.1  h2.3v2.8L824.6,370.5L824.6,370.5z"
   id="path436" />
<path
   class="st19"
   d="M829,354.8v-0.5c0-1,0.6-1.8,2.1-1.8s2.1,0.7,2.1,1.8v0.5c0,1-0.6,1.8-2.1,1.8S829,355.8,829,354.8z   M829.3,357.9h3.6v12.6h-3.6V357.9z"
   id="path438" />
<path
   class="st19"
   d="M836.2,370.5v-12.6h3.6v2.1h0.1c0.5-1.3,1.5-2.4,3.5-2.4c2.6,0,3.9,1.8,3.9,5v7.9h-3.6v-7.6  c0-1.6-0.5-2.4-1.8-2.4c-1.2,0-2.3,0.6-2.3,1.8v8.2H836.2z"
   id="path440" />
<path
   class="st19"
   d="M855.3,375.6c-4.4,0-6-1.1-6-2.9c0-1.4,0.9-2.2,2.4-2.4V370c-1.2-0.2-1.8-1.1-1.8-2.2c0-1.3,1.2-2,2.4-2.2  v-0.1c-1.5-0.7-2.3-2-2.3-3.6c0-2.5,1.8-4.2,5.4-4.2c0.8,0,1.5,0.1,2.1,0.2v-0.5c0-1.3,0.7-1.9,1.9-1.9h2v2.6h-2.8v0.1  c1.5,0.7,2.2,2,2.2,3.6c0,2.5-1.8,4.2-5.4,4.2c-0.8,0-1.6-0.1-2.2-0.3c-0.3,0.2-0.6,0.6-0.6,1c0,0.6,0.4,1,1.5,1h3.6  c3.1,0,4.4,1.3,4.4,3.7C862.2,374.1,860.5,375.6,855.3,375.6z M856.9,370.8h-4.3c-0.3,0.3-0.5,0.7-0.5,1.1c0,0.9,0.7,1.3,2.6,1.3  h1.4c1.9,0,2.6-0.4,2.6-1.3C858.8,371.2,858.3,370.8,856.9,370.8z M857.5,362v-0.3c0-1.1-0.7-1.7-2.1-1.7c-1.4,0-2.1,0.6-2.1,1.7  v0.3c0,1.1,0.7,1.7,2.1,1.7S857.5,363.1,857.5,362z"
   id="path442" />
<path
   class="st6"
   d="M727.4,460h8.1c2.8,0,4.4,1.7,4.4,4.3c0,2.6-1.4,3.5-3.1,3.6v0.1c1.6,0,3.8,1.1,3.8,3.9c0,2.6-1.8,4.8-4.3,4.8  h-8.9V460z M731.1,466.8h3.6c1,0,1.5-0.6,1.5-1.5v-0.7c0-1-0.6-1.5-1.5-1.5h-3.6V466.8z M731.1,473.6h4.2c1,0,1.6-0.6,1.6-1.5v-0.8  c0-1-0.6-1.5-1.6-1.5h-4.2V473.6z"
   id="path444" />
<path
   class="st6"
   d="M752.6,476.7c-1.3,0-2.2-0.9-2.4-2.2H750c-0.4,1.6-1.8,2.5-3.7,2.5c-2.5,0-3.9-1.5-3.9-3.7  c0-2.7,2.1-3.9,5.4-3.9h2v-0.8c0-1.2-0.6-2-2.1-2c-1.4,0-2.2,0.7-2.7,1.5l-2.1-1.9c1-1.5,2.4-2.4,5.1-2.4c3.6,0,5.4,1.6,5.4,4.6v5.5  h1.2v2.8H752.6z M749.8,472.9v-1.5h-1.7c-1.4,0-2.1,0.5-2.1,1.4v0.4c0,0.9,0.6,1.3,1.7,1.3C748.8,474.5,749.8,474.1,749.8,472.9z"
   id="path446" />
<path
   class="st6"
   d="M761.8,481.8c-4.4,0-6-1.1-6-2.9c0-1.4,0.9-2.2,2.4-2.4v-0.3c-1.2-0.2-1.8-1.1-1.8-2.2c0-1.3,1.2-2,2.4-2.2  v-0.1c-1.5-0.7-2.3-2-2.3-3.6c0-2.5,1.8-4.2,5.4-4.2c0.8,0,1.5,0.1,2.1,0.2v-0.5c0-1.3,0.7-1.9,1.9-1.9h2v2.6h-2.8v0.1  c1.5,0.7,2.2,2,2.2,3.6c0,2.5-1.8,4.2-5.4,4.2c-0.8,0-1.6-0.1-2.2-0.3c-0.3,0.2-0.6,0.6-0.6,1c0,0.6,0.4,1,1.5,1h3.6  c3.1,0,4.4,1.3,4.4,3.7C768.6,480.3,766.9,481.8,761.8,481.8z M763.3,477H759c-0.3,0.3-0.5,0.7-0.5,1.1c0,0.9,0.7,1.3,2.6,1.3h1.4  c1.9,0,2.6-0.4,2.6-1.3C765.2,477.4,764.7,477,763.3,477z M763.9,468.2v-0.3c0-1.1-0.7-1.7-2.1-1.7c-1.4,0-2.1,0.6-2.1,1.7v0.3  c0,1.1,0.7,1.7,2.1,1.7C763.2,469.9,763.9,469.3,763.9,468.2z"
   id="path448" />
<path
   class="st6"
   d="M775.2,481.8c-4.4,0-6-1.1-6-2.9c0-1.4,0.9-2.2,2.4-2.4v-0.3c-1.2-0.2-1.8-1.1-1.8-2.2c0-1.3,1.2-2,2.4-2.2  v-0.1c-1.5-0.7-2.3-2-2.3-3.6c0-2.5,1.8-4.2,5.4-4.2c0.8,0,1.5,0.1,2.1,0.2v-0.5c0-1.3,0.7-1.9,1.9-1.9h2v2.6h-2.8v0.1  c1.5,0.7,2.2,2,2.2,3.6c0,2.5-1.8,4.2-5.4,4.2c-0.8,0-1.6-0.1-2.2-0.3c-0.3,0.2-0.6,0.6-0.6,1c0,0.6,0.4,1,1.5,1h3.6  c3.1,0,4.4,1.3,4.4,3.7C782,480.3,780.3,481.8,775.2,481.8z M776.7,477h-4.3c-0.3,0.3-0.5,0.7-0.5,1.1c0,0.9,0.7,1.3,2.6,1.3h1.4  c1.9,0,2.6-0.4,2.6-1.3C778.7,477.4,778.1,477,776.7,477z M777.3,468.2v-0.3c0-1.1-0.7-1.7-2.1-1.7c-1.4,0-2.1,0.6-2.1,1.7v0.3  c0,1.1,0.7,1.7,2.1,1.7C776.6,469.9,777.3,469.3,777.3,468.2z"
   id="path450" />
<path
   class="st6"
   d="M783.3,461v-0.5c0-1,0.6-1.8,2.1-1.8c1.4,0,2.1,0.7,2.1,1.8v0.5c0,1-0.6,1.8-2.1,1.8  C783.9,462.8,783.3,462,783.3,461z M783.6,464.1h3.6v12.6h-3.6V464.1z"
   id="path452" />
<path
   class="st6"
   d="M790.4,476.7v-12.6h3.6v2.1h0.1c0.5-1.3,1.5-2.4,3.5-2.4c2.6,0,3.9,1.8,3.9,5v7.9H798v-7.6  c0-1.6-0.5-2.4-1.8-2.4c-1.2,0-2.3,0.6-2.3,1.8v8.2H790.4z"
   id="path454" />
<path
   class="st6"
   d="M809.6,481.8c-4.4,0-6-1.1-6-2.9c0-1.4,0.9-2.2,2.4-2.4v-0.3c-1.2-0.2-1.8-1.1-1.8-2.2c0-1.3,1.2-2,2.4-2.2  v-0.1c-1.5-0.7-2.3-2-2.3-3.6c0-2.5,1.8-4.2,5.4-4.2c0.8,0,1.5,0.1,2.1,0.2v-0.5c0-1.3,0.7-1.9,1.9-1.9h2v2.6h-2.8v0.1  c1.5,0.7,2.2,2,2.2,3.6c0,2.5-1.8,4.2-5.4,4.2c-0.8,0-1.6-0.1-2.2-0.3c-0.3,0.2-0.6,0.6-0.6,1c0,0.6,0.4,1,1.5,1h3.6  c3.1,0,4.4,1.3,4.4,3.7C816.4,480.3,814.7,481.8,809.6,481.8z M811.1,477h-4.3c-0.3,0.3-0.5,0.7-0.5,1.1c0,0.9,0.7,1.3,2.6,1.3h1.4  c1.9,0,2.6-0.4,2.6-1.3C813.1,477.4,812.6,477,811.1,477z M811.7,468.2v-0.3c0-1.1-0.7-1.7-2.1-1.7c-1.4,0-2.1,0.6-2.1,1.7v0.3  c0,1.1,0.7,1.7,2.1,1.7C811,469.9,811.7,469.3,811.7,468.2z"
   id="path456" />
<path
   class="st4"
   d="M406,74.5c0-7.3,5.9-13.1,13.1-13.1c7.3,0,13.1,5.9,13.1,13.1s-5.9,13.1-13.1,13.1S406,81.8,406,74.5L406,74.5"
   id="path458" />
<circle
   class="st5"
   cx="419.1"
   cy="74.5"
   r="13.1"
   id="circle460" />
<path
   id="path4172"
   d="m 407.2,463 v -0.4 c 0,-0.8 0.5,-1.5 1.7,-1.5 1.2,0 1.7,0.6 1.7,1.5 v 0.4 c 0,0.8 -0.5,1.5 -1.7,1.5 -1.2,-0.1 -1.7,-0.7 -1.7,-1.5 z m 0.3,2.5 h 3 V 476 h -3 z"
   class="st0"
   inkscape:connector-curvature="0"
   style="fill:#ffffff" /><path
   id="path4174"
   d="M 109.9,357.2 V 357 c 0,-0.5 0.3,-0.8 0.9,-0.8 0.6,0 0.9,0.3 0.9,0.8 v 0.2 c 0,0.5 -0.3,0.8 -0.9,0.8 -0.6,0 -0.9,-0.3 -0.9,-0.8 z m 0.1,3 h 1.4 v 9.3 H 110 Z"
   class="st0"
   inkscape:connector-curvature="0"
   style="fill:#ffffff" /><path
   id="path4176"
   d="M 308,357.2 V 357 c 0,-0.5 0.3,-0.8 0.9,-0.8 0.6,0 0.9,0.3 0.9,0.8 v 0.2 c 0,0.5 -0.3,0.8 -0.9,0.8 -0.7,0 -0.9,-0.3 -0.9,-0.8 z m 0.1,3 h 1.4 v 9.3 h -1.4 z"
   class="st0"
   inkscape:connector-curvature="0"
   style="fill:#ffffff" /><path
   id="path4178"
   d="M 604.3,357.2 V 357 c 0,-0.5 0.3,-0.8 0.9,-0.8 0.6,0 0.9,0.3 0.9,0.8 v 0.2 c 0,0.5 -0.3,0.8 -0.9,0.8 -0.6,0 -0.9,-0.3 -0.9,-0.8 z m 0.2,3 h 1.4 v 9.3 h -1.4 z"
   class="st0"
   inkscape:connector-curvature="0"
   style="fill:#ffffff" /></svg>